<svg height="350" viewBox="0 0 350 350" width="350" xmlns="http://www.w3.org/2000/svg" xmlns:xlink="http://www.w3.org/1999/xlink"><linearGradient id="a" gradientUnits="objectBoundingBox" x1=".51" x2=".475" y1="1.904" y2="-2.16"><stop offset="0" stop-opacity="0"/><stop offset=".49" stop-opacity=".2"/><stop offset=".52" stop-opacity=".231"/><stop offset=".99"/></linearGradient><linearGradient id="b" gradientUnits="objectBoundingBox" x1=".448" x2=".504" y1="2.197" y2=".741"><stop offset=".01"/><stop offset="1" stop-opacity="0"/></linearGradient><linearGradient id="c" x1=".882" x2=".936" xlink:href="#b" y1="1.505" y2="3.158"/><linearGradient id="d" gradientUnits="objectBoundingBox" x1=".82" x2=".807" y1="2.007" y2=".07"><stop offset=".02" stop-color="#fff" stop-opacity="0"/><stop offset=".58" stop-color="#fff" stop-opacity=".388"/><stop offset=".68" stop-color="#fff" stop-opacity=".678"/><stop offset="1" stop-color="#fff"/></linearGradient><linearGradient id="e" gradientUnits="objectBoundingBox" x1=".498" x2=".514" y1="6.925" y2=".07"><stop offset="0" stop-opacity="0"/><stop offset=".99"/></linearGradient><linearGradient id="f" x1=".515" x2=".327" xlink:href="#e" y1="2.944" y2="-4.057"/><linearGradient id="g" x1=".984" x2=".932" xlink:href="#b" y1="1.446" y2="3.349"/><linearGradient id="h" x1=".928" x2=".968" xlink:href="#b" y1="1.543" y2="3.367"/><linearGradient id="i" gradientUnits="objectBoundingBox" x1="1.931" x2="2.931" y1="2.989" y2="2.989"><stop offset="0" stop-color="#ecc4d7"/><stop offset=".42" stop-color="#efd4d1"/><stop offset="1" stop-color="#f2eac9"/></linearGradient><linearGradient id="j" x1=".5" x2=".5" xlink:href="#e" y1="85.273" y2="69.505"/><linearGradient id="k" x1="6.283" x2="7.086" xlink:href="#i" y1="8.05" y2="8.422"/><linearGradient id="l" x1=".877" x2="-2.096" xlink:href="#e" y1="4.906" y2="4.626"/><linearGradient id="m" x1="2.191" x2="3.191" xlink:href="#i" y1="3.722" y2="3.722"/><linearGradient id="n" x1="8.95" x2="9.952" xlink:href="#i" y1="4.078" y2="4.078"/><linearGradient id="o" x1="2.77" x2="3.77" xlink:href="#i" y1="2.901" y2="2.901"/><linearGradient id="p" gradientUnits="objectBoundingBox" x1="3.324" x2="3.46" y1="4.775" y2="5.522"><stop offset=".2" stop-color="#ecc4d7"/><stop offset=".37" stop-color="#f0dcce"/><stop offset="1" stop-color="#f2eac9"/></linearGradient><linearGradient id="q" x1="3.595" x2="4.595" xlink:href="#i" y1="3.59" y2="3.59"/><linearGradient id="r" gradientUnits="objectBoundingBox" x1=".906" x2=".21" y1="38.43" y2="38.696"><stop offset="0" stop-color="#68e1fd"/><stop offset=".2" stop-color="#5db4cf"/><stop offset=".46" stop-color="#50819b"/><stop offset=".69" stop-color="#475c76"/><stop offset=".87" stop-color="#41455e"/><stop offset=".99" stop-color="#3f3d56"/></linearGradient><linearGradient id="s" x1="4.247" x2="3.82" xlink:href="#e" y1="20.436" y2="26.021"/><linearGradient id="t" x1="2.186" x2="4.856" xlink:href="#e" y1="3.126" y2="4.339"/><linearGradient id="u" x1="10.399" x2="1.586" xlink:href="#i" y1="8.183" y2="9.475"/><path d="m0 0h350v350h-350z" fill="none"/><g transform="translate(5.995 10.995)"><path d="m76.47 41.106c-17.887 7.159-37 12.091-52.757 23.173s-27.667 30.7-22.475 49.25c4.028 14.363 17.46 25.595 18.07 40.517.488 11.9-7.381 22.286-11.559 33.435-8.439 22.525-1.141 48.762 13.792 67.6s36.459 31.376 58.514 40.973a327.027 327.027 0 0 0 166.168 25.024c16.878-1.9 33.906-5.22 48.867-13.254s27.756-21.35 31.939-37.807c5.691-22.359-4.954-46.49.864-68.815 2.277-8.755 7-16.751 9.01-25.572 4.837-21.261-6.949-42.977-21.943-58.8s-33.5-28.215-47.211-45.171c-9.5-11.742-16.457-25.4-26.221-36.921-19.182-22.673-50.162-36.049-79.885-34.631-29.529 1.402-57.329 29.845-85.173 40.999z" fill="#72577d" opacity=".18"/><path d="m91.3 536.487.848 3.846c-5.508 4-12.562 4.948-19.189 6.483s-13.653 4.2-17.072 10.079c4.926 6.383 14.1 7.154 22.165 7.364q97.524 2.543 195.142.7c20.646-.393 41.409-.942 61.673-4.915 1.452-.283 3.075-.7 3.8-1.995 1.241-2.216-1.108-4.693-3.253-5.99a44.967 44.967 0 0 0 -23.555-6.389c-3.114.039-7.2-.294-7.918-3.325a18.016 18.016 0 0 1 .05-3.325c-.089-2.771-2.466-4.987-5.076-5.818s-5.436-.554-8.168-.3c-51.483 4.954-103.758 1.108-155.412-1.529-8.19-.421-15.892 4.067-24.026 3.025-7.632-.969-13.157-2.465-20.009 2.089z" fill="url(#a)" transform="translate(-24.918 -236.915)"/><rect fill="#72577d" height="278.021" rx="35.02" width="207.111" x="65.454" y="20.804"/><rect fill="url(#b)" height="278.021" rx="35.02" transform="translate(65.454 20.804)" width="207.111"/><path d="m209.135 378.5-107.935-.68a15.432 15.432 0 0 0 -15.515 15.343l-.1 15.9a15.443 15.443 0 0 0 15.343 15.543l102.356.637a26.2 26.2 0 0 1 18.064 7.42l2.865 2.771.161-25.489.039-6.1.061-9.819a15.432 15.432 0 0 0 -15.343-15.515z" fill="url(#c)" transform="translate(-38.161 -168.462)"/><path d="m323.478 81.382v219.906a17.233 17.233 0 0 1 -17.222 17.222h-143.92a17.216 17.216 0 0 1 -17.216-17.216v-219.912a17.216 17.216 0 0 1 17.211-17.222h143.909a17.227 17.227 0 0 1 17.238 17.222z" fill="#72577d" transform="translate(-64.705 -28.606)"/><path d="m323.478 81.382v219.906a17.233 17.233 0 0 1 -17.222 17.222h-143.92a17.216 17.216 0 0 1 -17.216-17.216v-219.912a17.216 17.216 0 0 1 17.211-17.222h143.909a17.227 17.227 0 0 1 17.238 17.222z" fill="url(#d)" opacity=".69" transform="translate(-64.705 -28.606)"/><path d="m234.561 98.411a21.657 21.657 0 0 0 .809-6.694 9.37 9.37 0 0 1 -6.572 2.832 1.469 1.469 0 0 0 -.853.161 1.441 1.441 0 0 0 -.438 1.258c0 2.721-.044 5.591-1.435 7.924a10.672 10.672 0 0 1 -6.284 4.433c-5.541 1.762-11.52.992-17.255.105a7.835 7.835 0 0 1 -3.729-1.258 5.432 5.432 0 0 1 -1.707-4.865 18.184 18.184 0 0 1 1.662-5.114 17.1 17.1 0 0 0 1.718-8.273c-.294-2.832-2.095-5.674-4.854-6.372a3.541 3.541 0 0 0 -3.38.737 4.987 4.987 0 0 0 -.986 1.662 66.349 66.349 0 0 0 -4.522 18.081c-3.2-.3-6.256 1.33-9.42 1.773-2.034.288-30.144.432-32.189.294 0 0-.288 3.23.471 4.272s4.882 1.058 6.1 1.518c8.639 3.325 18.142 3.109 27.351 3.951 15.726 1.435 34.627 6.467 48.513-3.685 4.312-3.16 5.847-7.676 7-12.74z" fill="url(#e)" opacity=".6" transform="translate(-64.684 -36.736)"/><path d="m336.965 217.379c.272-5.281-1.3-10.495-3.43-15.338s-4.8-9.42-6.921-14.268c-.554-1.225-.931-2.9.144-3.69.333.831 1.624.593 2.266-.033s1.108-1.524 2-1.729a41.657 41.657 0 0 1 3.264 6.472l6.295 14.407a11.3 11.3 0 0 0 2.643 4.228c1.967 1.7 4.86 1.856 7.381 1.8a34.627 34.627 0 0 0 4.987-.5c1.845-.321 3.934-.853 5.02-2.427 1.662-2.438.078-5.9 1.108-8.677a7.037 7.037 0 0 1 2.272-2.9c1.28-1.036 3.042-1.845 4.538-1.153a4.987 4.987 0 0 1 1.812 1.74c3.879 5.408 6.045 12.035 10.739 16.74a10.722 10.722 0 0 0 7.248-2.926 37.941 37.941 0 0 0 4.8-6.173c2.549-3.679 5.336-7.2 8.123-10.683l3-3.774a.731.731 0 0 1 .344-.277c.344-.089.554.349.654.7 1.108 5.092-2.25 10.035-5.851 13.792-2.771 2.9-5.946 5.7-7.9 9.126a2.471 2.471 0 0 0 .931 3.375 2.5 2.5 0 0 0 1.008.316c6.572.554 13.3-.737 19.915.066 2 .244 4.344.992 4.671 3.1a3.325 3.325 0 0 1 -1.108 2.881c-1.407 1.341-3.325 1.607-5.186 1.834-20.962 2.577-42.113 3.325-63.213 4.017a7.2 7.2 0 0 1 -2.477-.205c-1.751-.554-2.771-2.349-3.762-3.879a27.8 27.8 0 0 0 -5.325-5.957z" fill="url(#f)" opacity=".6" transform="translate(-145.389 -81.292)"/><path d="m442.13 262.423v14.052a13.576 13.576 0 0 1 -13.5 13.653h-89.555a22.63 22.63 0 0 0 -15.87 6.422l-2.516 2.433v-36.571a13.631 13.631 0 0 1 9.42-13 13.388 13.388 0 0 1 4.106-.643h94.421a13.57 13.57 0 0 1 13.493 13.653z" fill="url(#g)" transform="translate(-142.989 -110.921)"/><path d="m179.075 142.849 2.327 35.618h-2.327l-2.475-2.377c-4.2-4.028-10.595-5.469-16.407-5.469h-88.034a13.3 13.3 0 0 1 -13.3-13.3l.826-14.473a13.3 13.3 0 0 1 13.3-13.3h92.815a13.243 13.243 0 0 1 10.977 5.79 13.155 13.155 0 0 1 2.3 7.508z" fill="url(#h)" transform="translate(-26.243 -57.762)"/><path d="m183.894 142.849v35.618l-2.477-2.377a22.5 22.5 0 0 0 -15.593-6.278h-88.065a13.3 13.3 0 0 1 -13.3-13.3v-13.663a13.3 13.3 0 0 1 13.3-13.3h92.841a13.254 13.254 0 0 1 10.977 5.79 13.16 13.16 0 0 1 2.317 7.51z" fill="#fff" transform="translate(-28.74 -57.762)"/><path d="m443.762 260.649v13.659a13.3 13.3 0 0 1 -13.3 13.3h-88.02a22.523 22.523 0 0 0 -15.6 6.276l-2.5 2.363v-35.6a13.3 13.3 0 0 1 13.243-13.3h92.895a13.3 13.3 0 0 1 13.282 13.302z" fill="#fff" transform="translate(-144.621 -110.288)"/><path d="m362.036 224.806c-.554-1.108-1.441-1.95-1.984-3.025-1.164-2.294-.482-5.142.892-7.314a9.062 9.062 0 0 0 1.479-2.82c.238-1.23-.238-2.571.277-3.713a5.8 5.8 0 0 1 2.216-2.039 21.436 21.436 0 0 1 3.834-2.721c1.446-.61 3.452-.388 4.161 1.02a3.556 3.556 0 0 1 4.023 1.036 8.477 8.477 0 0 1 1.745 4.045 34.815 34.815 0 0 0 1.142 4.921 6.6 6.6 0 0 0 3.142 3.8c2.959 1.385 7.082-.41 9.42 1.9 1.2 1.191 1.624 3.3 3.247 3.751.837.233 1.745-.072 2.577.15 1.435.388 2.028 2.122 2.061 3.607a10.589 10.589 0 0 1 -3.253 7.813c-1.031.981-2.349 1.9-2.56 3.325a10.1 10.1 0 0 0 .166 2.161 4.987 4.987 0 0 1 -7.963 4.4c-1.175-.875-2.167-2.344-3.629-2.277a4 4 0 0 0 -1.773.709 12.59 12.59 0 0 1 -3.768 1.745 4.311 4.311 0 0 1 -3.906-.9 7.958 7.958 0 0 1 -1.546-3.1c-.654-1.773-1.845-3.6-3.7-3.951-.8-.15-1.624 0-2.421-.133-5.408-.876-2.233-9.071-3.879-12.39z" fill="#3f3d56" transform="translate(-160.276 -90.447)"/><path d="m429.709 198.479a25.28 25.28 0 0 0 3.014-6.926 8.722 8.722 0 0 1 1.385-2.848.482.482 0 0 1 .87.332l-.222 2.216c1.108-1.286 2.421-3.641 4.278-5.6a.272.272 0 0 1 .382 0 .277.277 0 0 1 .061.283l-1.5 3.751a.15.15 0 0 0 .1.188.15.15 0 0 0 .155-.044l2.216-2.987c1.2-.864 1.064.4.953.7l-1.446 2.771a.183.183 0 0 0 .288.211 19.948 19.948 0 0 1 2.011-1.729.465.465 0 0 1 .665.615l-2.216 3.1c-.266.371-.493.587-.039.554l1.6-.587c.477-.188.249.9-.166 1.2a53.319 53.319 0 0 0 -4.871 4.339c-1.607 1.38-11.919 18.386-16.623 24.414-1.712 2.189-4.987 3.646-6.311.122-.992-2.671 2.05-5.17 3.513-7.1q6.294-8.22 11.903-16.975z" fill="url(#i)" transform="translate(-184.638 -82.744)"/><path d="m213.165 378.5-107.93-.682a15.432 15.432 0 0 0 -15.515 15.343l-.1 15.9a15.443 15.443 0 0 0 15.343 15.543l102.339.637a26.2 26.2 0 0 1 18.092 7.42l2.865 2.771.161-25.489.039-6.1.061-9.819a15.432 15.432 0 0 0 -15.343-15.515z" fill="#fff" transform="translate(-39.958 -168.462)"/><path d="m276.952 50.77h35.142a1.662 1.662 0 0 1 1.662 1.662 1.662 1.662 0 0 1 -1.662 1.662h-35.142a1.662 1.662 0 0 1 -1.662-1.662 1.662 1.662 0 0 1 1.662-1.662z" fill="url(#j)" transform="translate(-122.746 -22.635)"/><path d="m242.177 140.982c-2.926 1.263-3.441 1.064-6.572 1.612a15.139 15.139 0 0 1 -8.561-.964c-2.045 6.239-4.217 13.055-4.771 19.593a43.406 43.406 0 0 1 -.948 5.846h-18.84c-.055-.421-.105-.853-.15-1.3a96.62 96.62 0 0 1 .2-18.081 10.529 10.529 0 0 0 .094-1.108 3.8 3.8 0 0 0 -.066-.9 6 6 0 0 0 -.787-1.8c-.748-1.313-2.554-3.325-3.557-4.782-.133-.2-.255-.388-.355-.554.6-2.771 3.269-4.128 4.51-6.649a15.576 15.576 0 0 1 3.84-5.048 12 12 0 0 1 1.662-1.175 19.68 19.68 0 0 1 7.032-2.1c.382-.061.759-.116 1.141-.166a10.04 10.04 0 0 0 5.38 1.917 7.164 7.164 0 0 1 1.817.194 5.214 5.214 0 0 1 1.4.8l.743.554c1.363.97 2.726 1.951 4.089 2.926a20.2 20.2 0 0 0 3.009 1.9c3.419 1.618 4.832 1.468 8.589.992.442 2.353.885 5.849 1.101 8.293z" fill="#72577d" transform="translate(-88.225 -55.02)"/><path d="m228.417 117.688c-.981.9 1.873 4.023 2.909 4.865a4.378 4.378 0 0 0 3.923.449 2.728 2.728 0 0 0 2.045-1.635 4.4 4.4 0 0 0 -.172-1.878c-.238-1.3 0-2.671-.355-3.956a6.267 6.267 0 0 0 -2.3-3.23c-1.025-.8-3.79-2.937-4.361-.8-.619 2.268.605 4.058-1.689 6.185z" fill="url(#k)" transform="translate(-101.756 -49.303)"/><path d="m216.481 177.089h-11.636a14.1 14.1 0 0 0 -.715-1.3 1.352 1.352 0 0 0 -.194-.238 4.084 4.084 0 0 1 -1.025-1.928 24.492 24.492 0 0 1 .693-15.681 3.818 3.818 0 0 1 .826-1.352 8.179 8.179 0 0 0 1.912-2.122c1.258-2.311 3.657-6.25 4.843-8.594.471 4.549-1.3 8.766-1.108 13.332a25.4 25.4 0 0 0 1.108 7.868 15.183 15.183 0 0 0 3.513 5.5 12.437 12.437 0 0 1 1.783 4.515z" fill="url(#l)" transform="translate(-90.042 -65.039)"/><path d="m275.81 121.215s.981 7.154.942 6.744 13.991-4.233 18-17.516a5.115 5.115 0 0 1 1.108-1.158c4.987-3.724 5.763-5.292 4.272-4.378a3.94 3.94 0 0 1 -2.638.67 12.746 12.746 0 0 0 1.524-1.518c.587-.715 1.873-1.452 2.189-2.316a.6.6 0 0 0 .055-.31.443.443 0 0 0 -.471-.316 1.274 1.274 0 0 0 -.554.222 20.34 20.34 0 0 0 -2.156 1.551c-.427.349-1.6.82-1.2 0 .632-1.3 2.034-2.167 2.4-3.563a.554.554 0 0 0 -.033-.482c-.144-.177-.432-.122-.643 0-.759.344-3.048 3.485-3.607 3.413s.6-3.358.648-3.99c0-.172 0-.377-.15-.46a.416.416 0 0 0 -.465.127c-1.463 1.208-1.662 3.325-2.6 4.987a1.2 1.2 0 0 1 -.637.621c-.6.177-1.108-.51-1.723-.648a.5.5 0 0 0 -.338 0c-.338.15-.288.676-.083.986 2.772 4.219-4.282 14.381-13.84 17.334z" fill="url(#m)" transform="translate(-122.978 -43.598)"/><path d="m200.126 153.13s-2.909 23.417-.682 27.2h4.837a73.088 73.088 0 0 1 .554-22.625 5.643 5.643 0 0 0 -4.709-4.575z" fill="url(#n)" transform="translate(-88.553 -68.276)"/><rect fill="#72577d" height="6.234" opacity=".32" rx="3.117" width="57.041" x="42.641" y="83.496"/><rect fill="#72577d" height="6.234" opacity=".32" rx="3.117" width="57.041" x="42.641" y="96.257"/><path d="m475.6 270.578h-50.81a3.12 3.12 0 0 1 -3.12-3.114 3.114 3.114 0 0 1 3.114-3.114h50.816a3.114 3.114 0 0 1 3.114 3.114 3.114 3.114 0 0 1 -3.114 3.114z" fill="#72577d" opacity=".32" transform="translate(-188.014 -117.868)"/><path d="m475.6 293.622h-50.81a3.12 3.12 0 0 1 -3.12-3.114 3.109 3.109 0 0 1 3.12-3.1h50.81a3.114 3.114 0 0 1 3.114 3.114 3.12 3.12 0 0 1 -3.114 3.1z" fill="#72577d" opacity=".32" transform="translate(-188.014 -128.15)"/><path d="m217.376 402.484h-50.806a3.12 3.12 0 0 1 -3.12-3.114 3.12 3.12 0 0 1 3.12-3.12h50.807a3.114 3.114 0 0 1 3.114 3.114 3.114 3.114 0 0 1 -3.109 3.12z" fill="#72577d" opacity=".32" transform="translate(-72.878 -176.68)"/><rect fill="#72577d" height="6.234" opacity=".32" rx="3.117" width="57.041" x="90.578" y="233.811"/><path d="m384.654 248.533a6.65 6.65 0 0 1 -1.823 2.726c-1.546 1.413-3.508 2.3-5.031 3.735-3.38 3.181-3.94 8.262-4.294 12.889l-1.236 15.97h-23.27a22.64 22.64 0 0 0 -4.959.554q.449-6.428.776-12.855c.41-8.051.427-16.906-4.7-23.129a3.641 3.641 0 0 1 -1.053-1.878 3.374 3.374 0 0 1 1.02-2.216c.033-.033.055-.066.089-.105l3.424-4.184a2.466 2.466 0 0 1 1.563-1.108 2.216 2.216 0 0 1 1.479.7 28.226 28.226 0 0 1 3.591 3.951c.7.887 1.391 1.784 2.122 2.649 3.452 4.078 8.722 6.949 13.7 3.679a97.9 97.9 0 0 1 10.661-6.278 53.508 53.508 0 0 1 5.27-2.216 2.874 2.874 0 0 0 .925 2.216 11.365 11.365 0 0 1 1.592 2.067 3.707 3.707 0 0 1 .15 2.837z" fill="#72577d" transform="translate(-151.176 -106.533)"/><path d="m332.854 216.822a9.16 9.16 0 0 0 1-6.273 26.874 26.874 0 0 0 -2.028-6.14l-5.84-13.853a18.025 18.025 0 0 1 -1.213-3.524 18.245 18.245 0 0 1 .249-6.295 1.507 1.507 0 0 0 -1.108.111 2.82 2.82 0 0 1 -1.518 2.771 15.382 15.382 0 0 0 -2.771-5.73q.216 2.322.321 4.655-1.829-1.878-3.668-3.746c-.948 1.662 2.46 3.43 1.662 5.181l-4.023-2.9c-.294 1.973 2.9 2.9 3.07 4.9l-2.887-1.347c.609 1.491 2.023 2.46 3.142 3.624 4.112 4.328 4.112 11.027 6.683 16.407 1.474 3.1 3.053 5.63 3.718 9.015.496 2.546 2.685 7.206 5.211 3.144z" fill="url(#o)" transform="translate(-139.959 -79.316)"/><g fill="#72577d"><circle cx="105.683" cy="164.186" r="4.361"/><circle cx="119.087" cy="164.186" r="4.361"/><circle cx="132.491" cy="164.186" r="4.361"/><circle cx="212.915" cy="238.172" r="4.361"/><circle cx="226.314" cy="238.172" r="4.361"/><circle cx="239.712" cy="238.172" r="4.361"/><circle cx="195.15" cy="89.724" r="4.361"/><circle cx="208.554" cy="89.724" r="4.361"/><circle cx="221.953" cy="89.724" r="4.361"/></g><path d="m244.4 100.634a11.12 11.12 0 0 1 -3.253 5.541 7.508 7.508 0 0 1 -12.285-6.489c0-.172 0-.382-.122-.482a.615.615 0 0 0 -.4 0c-.815.083-1.419-.759-1.662-1.535a3.413 3.413 0 0 1 -.161-1.84 1.768 1.768 0 0 1 1.18-1.324 1.208 1.208 0 0 1 1.474.792 7.536 7.536 0 0 1 1.108-3.247 12.262 12.262 0 0 1 2.482-3.435 7.841 7.841 0 0 1 8.018-1.263 8.932 8.932 0 0 1 5.048 5.386c.321 1.108-.15 2.067-.366 3.147-.354 1.54-.603 3.203-1.061 4.749z" fill="url(#p)" transform="translate(-100.974 -38.687)"/><path d="m229.971 92.99a.388.388 0 0 1 -.283.155c-.216 0-.272-.3-.288-.51a1.989 1.989 0 0 0 -.554-1.4.959.959 0 0 0 -1.358 0 10.317 10.317 0 0 1 1.463-7.01 1.452 1.452 0 0 0 .3-.693c0-.327-.188-.648-.127-.97a1.175 1.175 0 0 1 .4-.587 5.8 5.8 0 0 1 2.067-1.374 2.543 2.543 0 0 1 2.355.266 11.714 11.714 0 0 1 5.824-1.624 9.37 9.37 0 0 1 3.491.593 8.738 8.738 0 0 1 4.56 4.361 11.5 11.5 0 0 1 .948 6.3 7.536 7.536 0 0 1 -9.913-3.635 4.572 4.572 0 0 0 .272 2.582 4.843 4.843 0 0 1 -2.615-3.463c-.416-.388-1.047.105-1.391.554a27.934 27.934 0 0 1 -2.771 3.546 8.472 8.472 0 0 0 -1.313 1.214c-.419.526-.596 1.197-1.067 1.695z" fill="#3f3d56" transform="translate(-101.381 -35.333)"/><path d="m377.86 236.525a4.2 4.2 0 0 1 -3.2 3.253 3.48 3.48 0 0 1 -1.219.1c-2.216-.227-3.225-2.965-3.181-5.2s.554-4.51-.465-6.411c0-.061-.061-.122-.094-.183-.554-.981-1.524-1.712-2.017-2.737a6.289 6.289 0 0 1 -.288-3.641c.659-4.632 4.289-16.873 11.282-12.29a9.387 9.387 0 0 1 3.513 5.308c2.191 7.311-2.497 7.183-4.331 21.801z" fill="url(#q)" transform="translate(-163.748 -92.924)"/><path d="m379.979 209.506a3.948 3.948 0 0 1 1.612 2.771c.6 3.075-.377 6.212-.925 9.3s-.554 6.649 1.612 8.921l.05.055a4.433 4.433 0 0 0 6.267.055 4.35 4.35 0 0 0 .981-1.441c.105-.238.227-.471.355-.7.842-1.491 2.017-2.771 2.854-4.267a13.183 13.183 0 0 0 1.4-4.028 10.706 10.706 0 0 0 .028-4.361 13.267 13.267 0 0 0 -3.956-6.156 15.458 15.458 0 0 0 -5.707-3.94 7.123 7.123 0 0 0 -6.649.792c-.554.443-2.078 2.216-1.286 2.992.665.601 2.385-.591 3.364.007z" fill="#3f3d56" transform="translate(-167.823 -91.516)"/><path d="m200.342 152.038-2.532-1.358 1.834 2.5.122-1.141z" fill="url(#r)" transform="translate(-88.198 -67.184)"/><path d="m250.52 153.437a2.532 2.532 0 0 1 2.649-2.216c2.482-.072 12.113-1.341 12.113-1.341l.371 2.926s-8.517 3.601-15.133.631z" fill="url(#s)" transform="translate(-111.701 -66.827)"/><path d="m261.444 134.318v1.3s-8.417 2.266-17.3-6.877l-.554-1.568a5.214 5.214 0 0 1 1.4.8l.743.554 4.089 2.926a20.2 20.2 0 0 0 3.009 1.9c3.419 1.618 4.832 1.468 8.589.992z" fill="#fff" opacity=".18" transform="translate(-108.611 -56.701)"/><path d="m215.329 125.633s-8.749-.427-12.905 9.547a16.379 16.379 0 0 1 -3.086 4.3l-1.153-.244c-.133-.2-.255-.388-.355-.554.6-2.771 3.269-4.128 4.51-6.649a15.577 15.577 0 0 1 3.84-5.048 12 12 0 0 1 1.662-1.175 19.68 19.68 0 0 1 7.032-2.1z" fill="#fff" opacity=".18" transform="translate(-88.207 -55.158)"/><path d="m397.237 255.671a6.649 6.649 0 0 1 -1.823 2.726c-1.546 1.413-3.508 2.3-5.031 3.735-3.38 3.181-3.94 8.262-4.294 12.889l-1.236 15.97h-17.583s9.581-19.46 12.19-24.614 10.589-8.544 10.589-8.544c6.218-4.822 7.188-2.162 7.188-2.162z" fill="url(#t)" transform="translate(-163.758 -113.672)"/><path d="m376.568 254.85a1.287 1.287 0 0 1 -.277.271 3.481 3.481 0 0 1 -1.219.1c-2.216-.227-3.225-2.965-3.181-5.2s.87-4.389-.981-7.2c.97.7 2.255 1.141 5.07 1.324 2.034.11.815 10.411.588 10.705z" fill="url(#u)" transform="translate(-165.381 -108.268)"/></g></svg>