<svg height="350" viewBox="0 0 350 350" width="350" xmlns="http://www.w3.org/2000/svg" xmlns:xlink="http://www.w3.org/1999/xlink"><linearGradient id="a" gradientUnits="objectBoundingBox" x1=".526" x2=".451" y1=".869" y2="-.197"><stop offset="0" stop-color="#010101" stop-opacity="0"/><stop offset=".95" stop-color="#010101"/></linearGradient><linearGradient id="b" x1="0" x2="1" xlink:href="#a" y1=".5" y2=".5"/><linearGradient id="c" x1=".522" x2=".445" xlink:href="#a" y1="-.015" y2="1.815"/><linearGradient id="d" x1=".495" x2=".505" xlink:href="#a" y1="-.699" y2="1.727"/><linearGradient id="e" gradientUnits="objectBoundingBox" x1="-.033" x2=".681" y1=".828" y2=".374"><stop offset="0" stop-color="#fff" stop-opacity="0"/><stop offset=".95" stop-color="#fff"/></linearGradient><linearGradient id="f" x1=".854" x2=".404" xlink:href="#e" y1="-.009" y2=".62"/><linearGradient id="g" x1="1.301" x2="2.014" xlink:href="#e" y1=".828" y2=".374"/><linearGradient id="h" x1="2.749" x2="2.298" xlink:href="#e" y1="-.008" y2=".62"/><linearGradient id="i" x1=".51" x2=".479" xlink:href="#e" y1="-.118" y2="1.787"/><linearGradient id="j" x1="8.466" x2="8.146" xlink:href="#e" y1="12.829" y2="13.544"/><linearGradient id="k" x1=".475" x2=".921" xlink:href="#e" y1=".52" y2=".162"/><clipPath id="l"><path d="m258.26 203.448 41.869 7.66v-38.394a17.739 17.739 0 0 0 -17.739-17.714c-9.8 0-19.228 9.84-19.228 19.637z" transform="translate(-258.26 -155)"/></clipPath><linearGradient id="m" x1="5.403" x2="4.79" xlink:href="#e" y1="9.428" y2="10.241"/><linearGradient id="n" x1="5.903" x2="5.579" xlink:href="#e" y1="12.463" y2="13.133"/><linearGradient id="o" x1="7.455" x2="6.842" xlink:href="#e" y1="12.736" y2="13.55"/><linearGradient id="p" x1="8.207" x2="7.883" xlink:href="#e" y1="16.839" y2="17.509"/><path d="m0 0h350v350h-350z" fill="none"/><g fill="#72577d"><path d="m344.258 217.349a30.646 30.646 0 0 1 -.943 5.222 44.616 44.616 0 0 1 -4.719 11.311c-12.059 21.044-35.679 33.21-59.439 38.187s-48.3 3.883-72.547 5c-32.751 1.483-65.414 6.981-98.166 5.178a221.4 221.4 0 0 1 -45.916-7.465c-72.333 0-36.968-110.457-32.814-152.332 1.793-18.05 3.891-36.95 14.186-51.878 12.183-17.652 33.749-26.461 54.85-30.288s42.83-3.632 63.787-8.031c34.278-7.189 67.413-26.574 102-21.076 33.933 5.423 61.449 37.7 61.43 72.075 0 24.111-10.94 48.084-4.663 72.094 5.46 20.854 25.053 39.318 22.954 62.003z" opacity=".24" transform="translate(-5.432 28.791)"/><path d="m345.437 348.16a44.617 44.617 0 0 1 -4.719 11.311c-12.059 21.044-35.679 33.21-59.439 38.187s-48.3 3.883-72.547 5c-32.751 1.483-65.414 6.981-98.166 5.178a221.4 221.4 0 0 1 -45.891-7.465c-10.054-2.733-30.828-6.284-36.911-15.628-3.8-5.813-4.4-16.7-4.556-25.877 2.275.358 4.537.9 6.523 1.087 6.73.628 13.542.691 20.29.9q21.447.685 42.906.917 85.46.911 170.794-5.618 40.947-3.141 81.716-7.992z" opacity=".24" transform="translate(-7.579 -96.798)"/><path d="m223.116 177.621h16.08v99.165h-16.08z"/></g><path d="m0 0h16.08v99.165h-16.08z" fill="url(#a)" transform="translate(223.116 177.621)"/><path d="m374 170.259v39.293h-110.17v-39.293a20.479 20.479 0 0 1 20.5-20.479h69.16a20.5 20.5 0 0 1 20.51 20.479z" fill="#72577d" transform="translate(-96.998 -23.076)"/><path d="m268.669 145a17.739 17.739 0 0 1 17.739 17.739v38.394h-35.478v-38.394a17.739 17.739 0 0 1 17.739-17.739z" fill="url(#b)" transform="translate(-81.252 -14.891)"/><path d="m389.579 170.26v39.293h-67.866v-41.593c-2.03-10.865-9.677-15.86-15.973-18.16h63.341a20.485 20.485 0 0 1 20.5 20.46z" fill="url(#c)" transform="translate(-112.573 -23.084)"/><rect fill="#72577d" height="5.637" rx="2.818" width="77.668" x="131.454" y="180.839"/><rect fill="url(#d)" height="5.637" rx="2.818" transform="translate(131.454 180.839)" width="77.668"/><path d="m270.333 372.26c-9.357 1.678-18.644 3.839-28.1 4.757-6.146.6-12.926.9-17.375 5.178a5.806 5.806 0 0 0 -1.986 3.531c-.251 2.96 2.834 5.027 5.6 6.108 8.056 3.186 16.815 4.1 25.468 4.65 14.088.892 28.214.911 42.334.924l42.057.038c12.411 0 26.191-.5 35.089-9.168a11.028 11.028 0 0 0 3.613-6.284c.49-3.946-2.514-7.666-6.127-9.319-6.284-2.865-15.666-2.268-22.5-3.029q-13.334-1.47-26.775-1.628a273.089 273.089 0 0 0 -51.295 4.242z" fill="#72577d" opacity=".24" transform="translate(-81.772 -104.171)"/><path d="m381.835 188.921c-.151.5-.628 2.03-.723 2.583l-1.508 5.567a2.791 2.791 0 0 0 -.1.748.578.578 0 0 0 .628.628 2.783 2.783 0 0 0 1.583-.628 6.127 6.127 0 0 0 2.03-4.738 6.284 6.284 0 0 0 -2.884-5.442 8.854 8.854 0 0 0 -4.487-1.056c-5.291 0-9 3.513-9 8.477 0 4.813 3.33 7.968 8.37 7.968a13.551 13.551 0 0 0 3.835-.554 10.746 10.746 0 0 0 2.807-1.325l1.527 2.206a11.788 11.788 0 0 1 -3.142 1.452 18.047 18.047 0 0 1 -5.316.8c-3.532 0-6.284-1.005-8.27-2.985a10.312 10.312 0 0 1 -2.909-7.415 10.827 10.827 0 0 1 3.06-7.823c2.306-2.306 5.335-3.437 9.225-3.437 5.838 0 10 3.77 10 9a8.439 8.439 0 0 1 -2.382 6.045 6.743 6.743 0 0 1 -4.688 2.055 2.476 2.476 0 0 1 -2.155-.98 1.7 1.7 0 0 1 -.22-.773 4.1 4.1 0 0 1 -3.362 1.577c-2.482 0-4.059-1.854-4.059-4.713 0-4.235 2.784-7.748 6.114-7.748a2.792 2.792 0 0 1 2.784 1.408l.251-.88zm-5.165 7.446a9.363 9.363 0 0 0 1-3.858c0-1.031-.578-1.728-1.452-1.728a3 3 0 0 0 -2.457 1.8 8.665 8.665 0 0 0 -1.005 3.77c0 1.326.5 2.03 1.458 2.03s1.827-.739 2.456-2.014z" fill="#72577d" transform="translate(-134.325 -35.775)"/><path d="m135.384 133.813c-.151-2.614.157-5.354-.917-7.742a9.828 9.828 0 0 0 -4.813-4.575 33.838 33.838 0 0 0 -6.447-2.074 143.743 143.743 0 0 1 -16.747-5.422c.553 3.909 3.77 6.837 6.73 9.426a5.655 5.655 0 0 0 -1.885.792 1.929 1.929 0 0 0 -.829 1.766 2.513 2.513 0 0 0 .779 1.257 9.514 9.514 0 0 0 4.487 2.514l-4.606 1.885a1.043 1.043 0 0 0 -.553.39c-.2.358.069.792.364 1.081 2.212 2.162 5.75 1.935 8.8 1.565a11.442 11.442 0 0 0 -3.89 3.029.679.679 0 0 0 -.214.553c.069.245.364.327.628.364a14.158 14.158 0 0 0 7.943-1.188 5.385 5.385 0 0 0 -1.646 2.187.66.66 0 0 0 0 .628.685.685 0 0 0 .465.182 8.728 8.728 0 0 0 6.19-1.785 4.091 4.091 0 0 0 2.922 3.393 11.939 11.939 0 0 0 4.707.308c3.142-.22 1.257-2.03.182-3.368a9.2 9.2 0 0 1 -1.65-5.166z" fill="#72577d" transform="translate(-38.516 -9.78)"/><path d="m135.384 133.813c-.151-2.614.157-5.354-.917-7.742a9.828 9.828 0 0 0 -4.813-4.575 33.838 33.838 0 0 0 -6.447-2.074 143.743 143.743 0 0 1 -16.747-5.422c.553 3.909 3.77 6.837 6.73 9.426a5.655 5.655 0 0 0 -1.885.792 1.929 1.929 0 0 0 -.829 1.766 2.513 2.513 0 0 0 .779 1.257 9.514 9.514 0 0 0 4.487 2.514l-4.606 1.885a1.043 1.043 0 0 0 -.553.39c-.2.358.069.792.364 1.081 2.212 2.162 5.75 1.935 8.8 1.565a11.442 11.442 0 0 0 -3.89 3.029.679.679 0 0 0 -.214.553c.069.245.364.327.628.364a14.158 14.158 0 0 0 7.943-1.188 5.385 5.385 0 0 0 -1.646 2.187.66.66 0 0 0 0 .628.685.685 0 0 0 .465.182 8.728 8.728 0 0 0 6.19-1.785 4.091 4.091 0 0 0 2.922 3.393 11.939 11.939 0 0 0 4.707.308c3.142-.22 1.257-2.03.182-3.368a9.2 9.2 0 0 1 -1.65-5.166z" fill="url(#e)" transform="translate(-38.516 -9.78)"/><path d="m133.363 137.194c-.1-1.785.107-3.657-.628-5.285a6.7 6.7 0 0 0 -3.293-3.142 23.393 23.393 0 0 0 -4.4-1.42 97.18 97.18 0 0 1 -11.442-3.707c.371 2.671 2.551 4.669 4.593 6.428a3.877 3.877 0 0 0 -1.257.547 1.307 1.307 0 0 0 -.566 1.206 1.684 1.684 0 0 0 .528.855 6.579 6.579 0 0 0 3.066 1.722l-3.142 1.294a.716.716 0 0 0 -.383.27c-.138.245.05.54.251.735 1.514 1.483 3.934 1.326 6.032 1.068a7.861 7.861 0 0 0 -2.658 2.074.452.452 0 0 0 -.145.377c.044.163.245.22.415.245a9.6 9.6 0 0 0 5.429-.811 3.714 3.714 0 0 0 -1.125 1.5c-.057.145-.107.327 0 .446a.434.434 0 0 0 .314.119 5.97 5.97 0 0 0 4.235-1.213 2.771 2.771 0 0 0 1.992 2.312 8.257 8.257 0 0 0 3.217.214c2.168-.151.848-1.389.126-2.306a6.284 6.284 0 0 1 -1.159-3.528z" fill="#72577d" transform="translate(-41.17 -13.362)"/><path d="m133.363 137.194c-.1-1.785.107-3.657-.628-5.285a6.7 6.7 0 0 0 -3.293-3.142 23.393 23.393 0 0 0 -4.4-1.42 97.18 97.18 0 0 1 -11.442-3.707c.371 2.671 2.551 4.669 4.593 6.428a3.877 3.877 0 0 0 -1.257.547 1.307 1.307 0 0 0 -.566 1.206 1.684 1.684 0 0 0 .528.855 6.579 6.579 0 0 0 3.066 1.722l-3.142 1.294a.716.716 0 0 0 -.383.27c-.138.245.05.54.251.735 1.514 1.483 3.934 1.326 6.032 1.068a7.861 7.861 0 0 0 -2.658 2.074.452.452 0 0 0 -.145.377c.044.163.245.22.415.245a9.6 9.6 0 0 0 5.429-.811 3.714 3.714 0 0 0 -1.125 1.5c-.057.145-.107.327 0 .446a.434.434 0 0 0 .314.119 5.97 5.97 0 0 0 4.235-1.213 2.771 2.771 0 0 0 1.992 2.312 8.257 8.257 0 0 0 3.217.214c2.168-.151.848-1.389.126-2.306a6.284 6.284 0 0 1 -1.159-3.528z" fill="url(#f)" transform="translate(-41.17 -13.362)"/><path d="m217.889 124.349c.151-2.614-.157-5.354.911-7.742a9.828 9.828 0 0 1 4.82-4.581 34.14 34.14 0 0 1 6.447-2.074 143.613 143.613 0 0 0 16.74-5.423c-.547 3.9-3.739 6.831-6.724 9.426a5.574 5.574 0 0 1 1.885.8 1.885 1.885 0 0 1 .829 1.759 2.432 2.432 0 0 1 -.773 1.257 9.564 9.564 0 0 1 -4.487 2.514l4.6 1.885a1.043 1.043 0 0 1 .559.4c.2.358-.075.792-.364 1.075-2.218 2.168-5.756 1.942-8.829 1.565a11.537 11.537 0 0 1 3.89 3.035.628.628 0 0 1 .207.553c-.063.239-.358.32-.628.358a14.17 14.17 0 0 1 -7.943-1.181 5.36 5.36 0 0 1 1.653 2.187.5.5 0 0 1 -.465.8 8.741 8.741 0 0 1 -6.19-1.778 4.084 4.084 0 0 1 -2.916 3.393 12.078 12.078 0 0 1 -4.707.3c-3.18-.214-1.257-2.03-.182-3.368a9.012 9.012 0 0 0 1.667-5.16z" fill="#72577d" transform="translate(-78.725 -6.261)"/><path d="m217.889 124.349c.151-2.614-.157-5.354.911-7.742a9.828 9.828 0 0 1 4.82-4.581 34.14 34.14 0 0 1 6.447-2.074 143.613 143.613 0 0 0 16.74-5.423c-.547 3.9-3.739 6.831-6.724 9.426a5.574 5.574 0 0 1 1.885.8 1.885 1.885 0 0 1 .829 1.759 2.432 2.432 0 0 1 -.773 1.257 9.564 9.564 0 0 1 -4.487 2.514l4.6 1.885a1.043 1.043 0 0 1 .559.4c.2.358-.075.792-.364 1.075-2.218 2.168-5.756 1.942-8.829 1.565a11.537 11.537 0 0 1 3.89 3.035.628.628 0 0 1 .207.553c-.063.239-.358.32-.628.358a14.17 14.17 0 0 1 -7.943-1.181 5.36 5.36 0 0 1 1.653 2.187.5.5 0 0 1 -.465.8 8.741 8.741 0 0 1 -6.19-1.778 4.084 4.084 0 0 1 -2.916 3.393 12.078 12.078 0 0 1 -4.707.3c-3.18-.214-1.257-2.03-.182-3.368a9.012 9.012 0 0 0 1.667-5.16z" fill="url(#g)" transform="translate(-78.725 -6.261)"/><path d="m225.917 127.73c.1-1.785-.107-3.657.628-5.291a6.736 6.736 0 0 1 3.293-3.142 23.25 23.25 0 0 1 4.4-1.414 98.782 98.782 0 0 0 11.443-3.714c-.377 2.671-2.558 4.675-4.6 6.435a3.808 3.808 0 0 1 1.257.54 1.32 1.32 0 0 1 .572 1.206 1.709 1.709 0 0 1 -.534.861 6.5 6.5 0 0 1 -3.066 1.715l3.142 1.3a.685.685 0 0 1 .377.264c.138.245-.05.547-.245.741-1.514 1.477-3.934 1.32-6.032 1.068a7.761 7.761 0 0 1 2.652 2.074.427.427 0 0 1 .145.377c-.044.163-.245.22-.415.245a9.671 9.671 0 0 1 -5.429-.811 3.689 3.689 0 0 1 1.131 1.5.459.459 0 0 1 0 .44.446.446 0 0 1 -.32.126 5.989 5.989 0 0 1 -4.229-1.219 2.79 2.79 0 0 1 -1.992 2.319 8.168 8.168 0 0 1 -3.224.207c-2.168-.145-.842-1.389-.119-2.3a6.359 6.359 0 0 0 1.165-3.527z" fill="#72577d" transform="translate(-82.078 -9.843)"/><path d="m225.917 127.73c.1-1.785-.107-3.657.628-5.291a6.736 6.736 0 0 1 3.293-3.142 23.25 23.25 0 0 1 4.4-1.414 98.782 98.782 0 0 0 11.443-3.714c-.377 2.671-2.558 4.675-4.6 6.435a3.808 3.808 0 0 1 1.257.54 1.32 1.32 0 0 1 .572 1.206 1.709 1.709 0 0 1 -.534.861 6.5 6.5 0 0 1 -3.066 1.715l3.142 1.3a.685.685 0 0 1 .377.264c.138.245-.05.547-.245.741-1.514 1.477-3.934 1.32-6.032 1.068a7.761 7.761 0 0 1 2.652 2.074.427.427 0 0 1 .145.377c-.044.163-.245.22-.415.245a9.671 9.671 0 0 1 -5.429-.811 3.689 3.689 0 0 1 1.131 1.5.459.459 0 0 1 0 .44.446.446 0 0 1 -.32.126 5.989 5.989 0 0 1 -4.229-1.219 2.79 2.79 0 0 1 -1.992 2.319 8.168 8.168 0 0 1 -3.224.207c-2.168-.145-.842-1.389-.119-2.3a6.359 6.359 0 0 0 1.165-3.527z" fill="url(#h)" transform="translate(-82.078 -9.843)"/><path d="m0 0h47.323v29.169h-47.323z" fill="#72577d" transform="matrix(.995 -.103 .103 .995 94.43 130.07)"/><path d="m181.256 165.917-47.072 4.87-3-29.012 47.933-5.335z" fill="url(#i)" transform="translate(-36.75 -11.71)"/><path d="m131.18 142.292 26.1 21.522 21.2-25.984z" fill="url(#j)" transform="translate(-36.75 -12.226)"/><circle cx="142.954" cy="124.9" fill="#72577d" r="6.592"/><circle cx="6.592" cy="6.592" fill="url(#k)" r="6.592" transform="translate(136.494 118.396)"/><g clip-path="url(#l)" transform="translate(163.332 129.984)"><path d="m0 0h42.956v26.48h-42.956z" fill="#72577d" transform="matrix(.98593776 .16711291 -.16711291 .98593776 24.359 21.005)"/><path d="m314.879 211.535-42.359-7.182 4.43-26.1 43.22 6.981z" fill="url(#m)" transform="translate(-252.607 -157.231)"/><path d="m279.57 178.25 17.588 25.167 24.859-17.576z" fill="url(#n)" transform="translate(-255.227 -157.231)"/><path d="m0 0h31.381v19.348h-31.381z" fill="#72577d" transform="matrix(.98593776 .16711291 -.16711291 .98593776 17.808 6.071)"/><path d="m294.951 178.8-30.941-5.247 3.236-19.071 31.57 5.1z" fill="url(#o)" transform="translate(-249.444 -148.397)"/><path d="m269.16 154.48 12.85 18.386 18.154-12.838z" fill="url(#p)" transform="translate(-251.358 -148.397)"/></g></svg>