<svg height="350" viewBox="0 0 350 350" width="350" xmlns="http://www.w3.org/2000/svg" xmlns:xlink="http://www.w3.org/1999/xlink"><linearGradient id="a" gradientUnits="objectBoundingBox" x1=".542" x2=".376" y1=".818" y2="-.389"><stop offset="0" stop-color="#fff" stop-opacity="0"/><stop offset=".95" stop-color="#fff"/></linearGradient><linearGradient id="b" gradientUnits="objectBoundingBox" x1=".526" x2=".451" y1=".869" y2="-.197"><stop offset="0" stop-color="#010101" stop-opacity="0"/><stop offset=".95" stop-color="#010101"/></linearGradient><linearGradient id="c" x1="-.001" x2="1.001" xlink:href="#b" y1=".5" y2=".5"/><linearGradient id="d" x1=".522" x2=".445" xlink:href="#b" y1="-.015" y2="1.815"/><linearGradient id="e" x1=".495" x2=".505" xlink:href="#b" y1="-.7" y2="1.727"/><linearGradient id="f" x1=".46" x2=".557" xlink:href="#a" y1=".922" y2="-1.272"/><linearGradient id="g" x1=".493" x2=".537" xlink:href="#b" y1=".888" y2="-4.631"/><linearGradient id="h" x1=".523" x2=".467" xlink:href="#a" y1="-.183" y2="1.485"/><linearGradient id="i" x1="-1.767" x2="-1.799" xlink:href="#a" y1=".137" y2="3.545"/><linearGradient id="j" x1="13.176" x2="13.143" xlink:href="#a" y1="-55.67" y2="-51.467"/><linearGradient id="k" x1="-7.976" x2="-8.003" xlink:href="#a" y1="6.885" y2="9.115"/><linearGradient id="l" x1="4.598" x2="4.562" xlink:href="#a" y1="-46.672" y2="-43.412"/><linearGradient id="m" x1="8.051" x2="8.023" xlink:href="#a" y1="-2.916" y2="-.53"/><linearGradient id="n" x1="32.442" x2="32.408" xlink:href="#a" y1="-30.418" y2="-26.956"/><linearGradient id="o" x1="8.398" x2="8.37" xlink:href="#a" y1="-3.316" y2="-.93"/><linearGradient id="p" x1="34.631" x2="34.597" xlink:href="#a" y1="-31.151" y2="-27.691"/><linearGradient id="q" x1="-11.759" x2="-11.787" xlink:href="#a" y1="12.327" y2="14.788"/><linearGradient id="r" x1="12.07" x2="12.036" xlink:href="#a" y1="-36.807" y2="-33.361"/><linearGradient id="s" x1="7.226" x2="7.198" xlink:href="#a" y1="-1.909" y2=".4"/><linearGradient id="t" x1="26.211" x2="26.176" xlink:href="#a" y1="-31.32" y2="-27.926"/><linearGradient id="u" x1="-3.034" x2="-3.064" xlink:href="#a" y1=".635" y2="3.732"/><linearGradient id="v" x1="10.98" x2="10.947" xlink:href="#a" y1="-50.594" y2="-46.63"/><linearGradient id="w" gradientUnits="objectBoundingBox" x1=".503" x2=".496" y1="-.339" y2="2.798"><stop offset="0" stop-color="#fff" stop-opacity="0"/><stop offset=".39" stop-color="#fff"/></linearGradient><path d="m0 0h350v350h-350z" fill="none"/><path d="m347.571 213.008a30.767 30.767 0 0 1 -.942 5.242 44.751 44.751 0 0 1 -4.74 11.3c-12.1 21.126-35.785 33.33-59.642 38.3s-48.473 3.9-72.826 5.022c-32.828 1.507-65.606 7.044-98.472 5.274a222.77 222.77 0 0 1 -46.081-7.465c-72.587 0-37.1-110.852-32.929-152.877 1.8-18.106 3.9-37.085 14.239-52.058 12.222-17.746 33.865-26.584 55.041-30.426s42.955-3.648 64.036-8.061c34.4-7.22 67.653-26.7 102.333-21.151 34.046 5.443 61.67 37.863 61.651 72.33 0 24.2-10.98 48.253-4.677 72.349 5.48 20.931 25.143 39.463 23.009 62.221z" fill="#72577d" opacity=".24" transform="translate(-8.611 32.873)"/><path d="m141.415 105.563c-7.841 1.362-15.727 2.97-22.965 6.278a97.378 97.378 0 0 0 -15.237 9.26c-14.7 10.3-29.739 22.124-35.911 38.987a47.217 47.217 0 0 0 43.84 63.409 41.982 41.982 0 0 1 -3.961-61.525 57.817 57.817 0 0 1 16.756-11.715c19.688-9.605 42.22-11.853 64.112-10.993s30.26-4.319 52.108-2.511c-4.878-12.142 2.467-14.9-4.47-26-10.2-16.323-21.195-13.573-38.591-12.054-18.634 1.691-37.255 3.662-55.681 6.864z" fill="#72577d" opacity=".24" transform="translate(-25.295 -1.516)"/><path d="m135.772 101.188c-7.841 1.362-15.727 2.97-22.965 6.278a97.321 97.321 0 0 0 -15.231 9.26c-14.7 10.309-29.739 22.13-35.9 38.993a47.217 47.217 0 0 0 43.834 63.409 41.975 41.975 0 0 1 -3.955-61.494 57.7 57.7 0 0 1 16.75-11.715c19.694-9.605 42.226-11.853 64.118-10.993s34.6 3.227 56.434 5.022c-4.878-12.142-1.883-22.444-8.789-33.544-10.2-16.323-21.189-13.573-38.585-12.054-18.664 1.665-37.283 3.636-55.711 6.838z" fill="url(#a)" transform="translate(-23.2 .103)"/><path d="m348.816 344.6a44.75 44.75 0 0 1 -4.74 11.3c-12.1 21.126-35.785 33.33-59.642 38.3s-48.473 3.9-72.826 5.022c-32.853 1.507-65.631 7.044-98.5 5.274a222.77 222.77 0 0 1 -46.081-7.465c-10.089-2.75-30.938-6.335-37.041-15.7-3.817-5.832-4.445-16.762-4.57-25.966 2.285.358 4.545.9 6.542 1.086 6.755.628 13.592.7 20.366.9q21.515.7 43.061.923 85.765.91 171.391-5.65 41.101-3.158 82.04-8.024z" fill="#72577d" opacity=".24" transform="translate(-10.773 -93.476)"/><path d="m94.404 219.871h8.544v52.711h-8.544z" fill="#72577d"/><path d="m0 0h8.544v52.711h-8.544z" fill="url(#b)" transform="translate(94.404 219.871)"/><path d="m163.366 262.6v20.887h-58.556v-20.887a10.886 10.886 0 0 1 10.9-10.88h36.764a10.892 10.892 0 0 1 10.892 10.88z" fill="#72577d" transform="translate(-40.321 -58.907)"/><path d="m97.047 249.48a9.417 9.417 0 0 1 9.417 9.417v20.416h-18.834v-20.4a9.417 9.417 0 0 1 9.417-9.43z" fill="url(#c)" transform="translate(-21.616 -54.853)"/><path d="m171.668 262.6v20.881h-36.08v-22.105a12.47 12.47 0 0 0 -8.488-9.656h33.669a10.892 10.892 0 0 1 10.899 10.88z" fill="url(#d)" transform="translate(-48.618 -58.907)"/><rect fill="#72577d" height="2.995" rx="1.497" width="41.285" x="45.686" y="221.585"/><rect fill="url(#e)" height="2.995" rx="1.497" transform="translate(45.686 221.585)" width="41.285"/><g fill="#72577d"><path d="m108.247 370.078c-4.979.891-9.913 2.04-14.942 2.511-3.265.314-6.868.477-9.235 2.75a3.139 3.139 0 0 0 -1.055 1.883c-.132 1.57 1.507 2.668 2.976 3.246 4.288 1.7 8.94 2.178 13.542 2.474 7.483.471 14.992.483 22.5.49h22.35c6.6 0 13.925-.27 18.652-4.872a5.845 5.845 0 0 0 1.921-3.334c.264-2.1-1.331-4.074-3.258-4.953-3.334-1.519-8.325-1.205-11.928-1.607q-7.126-.735-14.257-.841a145.379 145.379 0 0 0 -27.266 2.254z" opacity=".24" transform="translate(-32.207 -102.116)"/><path d="m167.607 272.513c-.082.27-.32 1.08-.389 1.375l-.8 2.957a1.349 1.349 0 0 0 -.056.4.308.308 0 0 0 .352.333 1.488 1.488 0 0 0 .835-.345 3.258 3.258 0 0 0 1.08-2.511 3.327 3.327 0 0 0 -1.532-2.888 4.721 4.721 0 0 0 -2.386-.559 4.468 4.468 0 0 0 -4.784 4.5c0 2.618 1.777 4.206 4.464 4.206a7.221 7.221 0 0 0 2.04-.3 5.9 5.9 0 0 0 1.494-.7l.81 1.174a6.649 6.649 0 0 1 -1.664.772 9.743 9.743 0 0 1 -2.825.421 5.952 5.952 0 0 1 -4.395-1.582 5.481 5.481 0 0 1 -1.544-3.943 5.745 5.745 0 0 1 1.626-4.156 6.567 6.567 0 0 1 4.9-1.827c3.108 0 5.318 2 5.318 4.784a4.483 4.483 0 0 1 -1.256 3.208 3.553 3.553 0 0 1 -2.511 1.092 1.318 1.318 0 0 1 -1.143-.521.847.847 0 0 1 -.119-.408 2.178 2.178 0 0 1 -1.789.835c-1.318 0-2.153-.986-2.153-2.511 0-2.248 1.475-4.112 3.246-4.112a1.475 1.475 0 0 1 1.482.747l.132-.471zm-2.744 3.961a5.022 5.022 0 0 0 .527-2.053c0-.546-.3-.923-.772-.923a1.544 1.544 0 0 0 -1.306.961 4.633 4.633 0 0 0 -.534 2c0 .709.27 1.08.778 1.08s.956-.387 1.307-1.065z" transform="translate(-60.233 -65.649)"/><path d="m400.276 117.59-81.7 28.258-12.496-26.948z" transform="translate(-102.921 -5.764)"/></g><path d="m400.276 117.59-81.7 28.258-12.496-26.948z" fill="url(#f)" transform="translate(-102.921 -5.764)"/><path d="m310.242 128.219 71.162-4.727 18.872-5.9-94.2 1.306z" fill="url(#g)" transform="translate(-102.921 -5.764)"/><path d="m279.8 72.14 115.944 29.394-100.858-12.034z" fill="#72577d" transform="translate(-93.14 11.152)"/><path d="m196.13 116.917 67.615-17.127 100.855 12.035z" fill="#72577d" transform="translate(-61.999 .861)"/><path d="m279.8 72.14 115.944 29.394-100.858-12.034z" fill="url(#h)" transform="translate(-93.14 11.152)"/><path d="m0 0h24.302v14.979h-24.302z" fill="#72577d" transform="matrix(.99953359 .03053851 -.03053851 .99953359 129.738 127.536)"/><path d="m212.71 158.324-24.29-.741.452-14.973 24.767.559z" fill="url(#i)" transform="translate(-59.129 -15.076)"/><path d="m189.14 142.61 11.809 12.738 12.569-11.771z" fill="url(#j)" transform="translate(-59.397 -15.076)"/><path d="m0 0h24.302v14.979h-24.302z" fill="#72577d" transform="matrix(.902 .431 -.431 .902 88.481 106.757)"/><path d="m135.043 133.521-21.923-10.491 6.466-13.51 22.425 10.516z" fill="url(#k)" transform="translate(-31.103 -2.761)"/><path d="m123.42 109.52 5.657 16.423 16.248-5.7z" fill="url(#l)" transform="translate(-34.937 -2.761)"/><path d="m0 0h15.959v9.838h-15.959z" fill="#72577d" transform="matrix(.94506308 -.32688803 .32688803 .94506308 61.307 156.737)"/><path d="m98.431 190-15.086 5.217-3.214-9.3 15.331-5.437z" fill="url(#m)" transform="translate(-18.824 -29.171)"/><path d="m80.13 186.118 10.221 5.06 4.966-10.158z" fill="url(#n)" transform="translate(-18.824 -29.372)"/><path d="m0 0h15.588v9.605h-15.588z" fill="#72577d" transform="matrix(.94506308 -.32688803 .32688803 .94506308 37.295 146.722)"/><path d="m59.747 174.018-14.728 5.091-3.139-9.078 14.967-5.311z" fill="url(#o)" transform="translate(-4.588 -23.306)"/><path d="m41.88 170.229 9.982 4.947 4.847-9.926z" fill="url(#p)" transform="translate(-4.588 -23.503)"/><path d="m0 0h12.01v7.402h-12.01z" fill="#72577d" transform="matrix(.95105652 .30901699 -.30901699 .95105652 44.679 180.967)"/><path d="m61.41 238.468-11.42-3.7 2.291-7.044 11.665 3.691z" fill="url(#q)" transform="translate(-7.606 -46.754)"/><path d="m53.64 227.72 3.836 7.678 7.59-3.848z" fill="url(#r)" transform="translate(-8.965 -46.754)"/><path d="m0 0h21.716v13.385h-21.716z" fill="#72577d" transform="matrix(.93060934 -.36601401 .36601401 .93060934 138.159 93.499)"/><path d="m227.652 88.02-20.209 7.948-4.9-12.456 20.536-8.262z" fill="url(#s)" transform="translate(-64.384 9.994)"/><path d="m202.54 83.791 14.188 6.3 6.172-14.091z" fill="url(#t)" transform="translate(-64.384 9.715)"/><path d="m0 0h26.355v16.248h-26.355z" fill="#72577d" transform="matrix(.99519328 .09793029 -.09793029 .99519328 215.69 83.308)"/><path d="m349.746 90.9-26.236-2.58 1.59-16.17 26.751 2.423z" fill="url(#u)" transform="translate(-109.409 11.148)"/><path d="m326.05 72.15 11.85 14.65 14.458-11.815z" fill="url(#v)" transform="translate(-110.354 11.148)"/><path d="m196.13 116.917 67.615-17.127 100.855 12.035z" fill="url(#w)" transform="translate(-61.999 .861)"/></svg>