<svg height="350" viewBox="0 0 350 350" width="350" xmlns="http://www.w3.org/2000/svg" xmlns:xlink="http://www.w3.org/1999/xlink"><linearGradient id="a" gradientUnits="objectBoundingBox" x1="1.136" x2="2.136" y1="-4.844" y2="-4.844"><stop offset="0" stop-opacity="0"/><stop offset=".91" stop-opacity=".8"/><stop offset="1"/></linearGradient><linearGradient id="b" x1="1.583" x2=".929" xlink:href="#a" y1="-2.197" y2="-3.384"/><linearGradient id="c" x1=".252" x2="1.413" xlink:href="#a" y1="-.347" y2="-.686"/><linearGradient id="d" gradientUnits="objectBoundingBox" x1="2.316" x2="1.574" y1=".675" y2="1.107"><stop offset=".36" stop-color="#00272e"/><stop offset="1" stop-color="#69b9eb" stop-opacity="0"/></linearGradient><linearGradient id="e" gradientUnits="objectBoundingBox" x1="3.949" x2="4.949" y1="4.611" y2="4.611"><stop offset="0" stop-color="#ecc4d7"/><stop offset=".42" stop-color="#efd4d1"/><stop offset="1" stop-color="#f2eac9"/></linearGradient><linearGradient id="f" x1="5.516" x2="3.379" xlink:href="#e" y1="7.501" y2="4.977"/><linearGradient id="g" x1="1.863" x2="2.863" xlink:href="#e" y1="4.287" y2="4.287"/><linearGradient id="h" x1="1.789" x2="2.789" xlink:href="#e" y1=".321" y2=".321"/><linearGradient id="i" x1=".936" x2="1.92" xlink:href="#a" y1="-.762" y2="-1.222"/><linearGradient id="j" x1=".001" x2="1.001" xlink:href="#e" y1="-10.177" y2="-10.177"/><linearGradient id="k" x1="5.405" x2="6.407" xlink:href="#e" y1="-21.495" y2="-21.495"/><linearGradient id="l" x1="2.234" x2="1.157" xlink:href="#d" y1=".187" y2=".655"/><linearGradient id="m" x1="1.75" x2="2.75" xlink:href="#e" y1="-3.078" y2="-3.078"/><linearGradient id="n" x1="2.423" x2="3.423" xlink:href="#e" y1="-7.68" y2="-7.68"/><linearGradient id="o" x1=".745" x2="1.777" xlink:href="#d" y1="-.315" y2="-.377"/><linearGradient id="p" x1="1.716" x2="2.716" xlink:href="#e" y1="1.469" y2="1.469"/><linearGradient id="q" x1=".455" x2="1.343" xlink:href="#d" y1="-1.303" y2="-.677"/><linearGradient id="r" x1="4.369" x2="5.368" xlink:href="#e" y1="-20.203" y2="-20.203"/><linearGradient id="s" x1="3.88" x2="1.963" xlink:href="#a" y1="2.941" y2="2.992"/><linearGradient id="t" gradientUnits="objectBoundingBox" x1="1.925" x2="2.041" y1="13.503" y2="3.012"><stop offset="0" stop-color="#68e1fd" stop-opacity="0"/><stop offset=".02" stop-color="#66daf6" stop-opacity=".039"/><stop offset=".18" stop-color="#58a1bc" stop-opacity=".388"/><stop offset=".35" stop-color="#4d758f" stop-opacity=".659"/><stop offset=".53" stop-color="#45566f" stop-opacity=".851"/><stop offset=".73" stop-color="#40435c" stop-opacity=".961"/><stop offset=".99" stop-color="#3f3d56"/></linearGradient><linearGradient id="u" x1="1.882" x2="1.993" xlink:href="#t" y1="11.945" y2="3.833"/><path d="m0 0h350v350h-350z" fill="none"/><path d="m329.045 224.342a87.542 87.542 0 0 1 -2.125 19.178c-12.551 56.258-79.461 99.2-160.1 99.2-33.268 0-64.2-7.311-89.931-19.843-17.759-8.648-33.051-19.782-44.933-32.728a85.334 85.334 0 0 1 -13.239-16.064c-34.121-52.95-21.326-147.432 36.4-146.645a145.777 145.777 0 0 0 20.61-1.054c16.22-2.094 26.059-7 32.017-12.315a30.307 30.307 0 0 0 3.981-4.3 53.545 53.545 0 0 1 34.131-20.65c120.41-19.288 164.258 40.74 177.849 91.319a152.608 152.608 0 0 1 5.295 41.849c.034.681.045 1.367.045 2.053z" fill="#72577d" opacity=".18" transform="translate(10.991 -17.329)"/><path d="m86.709 414.455-64.246-21.695s-23.642-29.328-22.325-78.65l95.607 39.136s41.573-11.947 66.34-13.143 134.566-12.724 134.566-12.724 21.19 24.293 11.765 31.724-77.258 8.683-77.258 8.683l-47.173-27.648-39.65 30.655-30.271 28.526z" fill="#000405" opacity=".05" transform="translate(10.954 -130.638)"/><path d="m379.549 297.14-1.009 2.56s3.027 2.679 1.009 3.829c0 .003 10.504-.648 0-6.389z" fill="#3f3d56" transform="translate(-176.562 -122.23)"/><path d="m141.381 461.65-1.221 3.461 10.01 4.687s9.3 1.171 12.164-1.281a12.275 12.275 0 0 0 3.658-5.736z" fill="#333" transform="translate(-58.45 -203.74)"/><path d="m172.7 397.288s11.8-.207 15.247 4.077-8.947 16.967-8.947 16.967l-28.6 2.018z" fill="#72577d" transform="translate(-63.524 -171.85)"/><path d="m172.7 397.288s11.8-.207 15.247 4.077-8.947 16.967-8.947 16.967l-28.6 2.018z" fill="url(#a)" transform="translate(-63.524 -171.85)"/><path d="m160.19 422.7s24.782 2.235 29.091 3.824c8.143 3.062 5.721 14.505 2.018 15.726-3.073 1.034-26.442 9.586-33.914 12.326a2.573 2.573 0 0 1 -3.244-1.418l-2.563-6.11a2.588 2.588 0 0 1 1.64-3.481l14.7-4.374s-21.826 2.2-26.235 1.221c-9.763-2.139-19.389-14.631-14.263-25.539s32.77 7.825 32.77 7.825z" fill="#72577d" transform="translate(-51.433 -178.876)"/><path d="m160.19 422.7s24.782 2.235 29.091 3.824c8.143 3.062 5.721 14.505 2.018 15.726-3.073 1.034-26.442 9.586-33.914 12.326a2.573 2.573 0 0 1 -3.244-1.418l-2.563-6.11a2.588 2.588 0 0 1 1.64-3.481l14.7-4.374s-21.826 2.2-26.235 1.221c-9.763-2.139-19.389-14.631-14.263-25.539s32.77 7.825 32.77 7.825z" fill="url(#b)" transform="translate(-51.433 -178.876)"/><path d="m320.965 311.51-1.145 4.48 5.873 5.2s-1.68 0-3.027 2.624l-.535 5.736s3.945 8.537 14.833 1.075l17.658 15.61 39.166-13.794.838-5.338z" fill="#3f3d56" transform="translate(-147.468 -129.35)"/><path d="m501.83 311.413-19.485-7.654a8.547 8.547 0 0 0 -7.911-.232 6.665 6.665 0 0 0 -3.809 5.741c-.671 7.366 3.295 41.27 3.295 41.27a19.894 19.894 0 0 0 4.541 1.165 9.515 9.515 0 0 0 7.815-1.912l.378-25.5s21.962 13.567 29.8 12.436c8.769-1.261 22.875-8.456 13.345-25.14s-27.969-.174-27.969-.174z" fill="#72577d" transform="translate(-222.15 -124.969)"/><path d="m501.83 311.413-19.485-7.654a8.547 8.547 0 0 0 -7.911-.232 6.665 6.665 0 0 0 -3.809 5.741c-.671 7.366 3.295 41.27 3.295 41.27a19.894 19.894 0 0 0 4.541 1.165 9.515 9.515 0 0 0 7.815-1.912l.378-25.5s21.962 13.567 29.8 12.436c8.769-1.261 22.875-8.456 13.345-25.14s-27.969-.174-27.969-.174z" fill="url(#c)" transform="translate(-222.15 -124.969)"/><path d="m465.331 231.08s-5.721 18.213-7.265 22.118-28.6 7.154-28.6 7.154l1.009 11.69 30.806-3.824 9.263-13.4z" fill="#72577d" transform="translate(-201.797 -89.498)"/><path d="m465.331 231.08s-5.721 18.213-7.265 22.118-28.6 7.154-28.6 7.154l1.009 11.69 30.806-3.824 9.263-13.4z" fill="url(#d)" opacity=".61" transform="translate(-201.797 -89.498)"/><path d="m514.675 218.283 6.271 3.481c11.649 5.2 15.882 16.78 22.441 47.677 0 0-5.509 12.32-25.791 4.036 0 0-13.763-20.11-16.034-27.648s-7.987-20.509 2.523-25.468 10.59-2.078 10.59-2.078z" fill="#72577d" transform="translate(-235.733 -82.745)"/><path d="m537.445 271.68 7.638 28.823s-7.795 4.753-18.213-.172-6.73-9.823-10.09-15.807l10.206-5.55z" fill="#000405" opacity=".05" transform="translate(-245.057 -109.615)"/><path d="m517.8 216.63a7.114 7.114 0 0 1 -9.45 3.471l-.293-.141s-5.893 10.277 2.523 9.051c4.46-.651 8.365-7.29 9.112-10.656z" fill="#333" transform="translate(-239.743 -82.339)"/><path d="m519.307 200.29c0 .116-.267 5.187-.474 8.839a11.231 11.231 0 0 1 -3.4 7.462 12.482 12.482 0 0 1 -4.157 2.851 2.185 2.185 0 0 1 -2.24-.439 2.21 2.21 0 0 1 -.636-2.2c.2-.762.4-1.64.565-2.558a11.341 11.341 0 0 0 -.035-5.429 1.514 1.514 0 0 0 -.055-.161 2.356 2.356 0 0 1 .711-2.4 17.678 17.678 0 0 1 4.41-3.33 53.49 53.49 0 0 1 5.308-2.629z" fill="url(#e)" transform="translate(-240.869 -74.243)"/><path d="m510.71 215.021a4.5 4.5 0 0 1 -1.1.388 11.341 11.341 0 0 0 -.035-5.429l.656-2.563.5-1.907 3.925-1.423 3.971-1.438c-.99 7.051-4.758 10.894-7.917 12.372z" fill="url(#f)" transform="translate(-241.484 -75.412)"/><path d="m499.416 160.462a11.286 11.286 0 0 0 -10.6 11.917 6.254 6.254 0 0 0 .086.863 38.193 38.193 0 0 0 3.471 13.219c3.678 6.276 12.961 1.11 14.429-1.473s7.018-14.273 4.692-17.6c-1.533-2.259-6.054-7.163-12.078-6.926z" fill="url(#g)" transform="translate(-231.194 -54.505)"/><path d="m483.791 149.59 1.907.979a7.174 7.174 0 0 0 -5.893 2.851 9.445 9.445 0 0 0 -2.765 6.559l3.244-1.514s-.247 4 5.888 4.3 12.638.555 12.638.555l-2.069-2.886s3.809 1.514 4.48 2.946a46.983 46.983 0 0 1 1.292 6.892s1.514-3.945 2.154-3.083-.666 4.44-1.468 5.222-.666 3.138-.742 3.33 3.814-3.027 3.986-4.132 4.036-12.3 1.514-14.631l1.514-.111a7.165 7.165 0 0 0 -3.027-1.171s-10.035-13.26-22.653-6.106z" fill="#333" transform="translate(-225.367 -48.073)"/><path d="m406.623 289.121a34.333 34.333 0 0 1 -5.706-1.514 46.414 46.414 0 0 0 -9.081-1.418s-.59 2.018 1.009 2.432 3.431 1.09 3.431 1.09l-6.67.671-6.175.843s.59 2.018 2.25 2.018a7.568 7.568 0 0 0 1.9 2.255 30.48 30.48 0 0 1 3.259 3.446 18.766 18.766 0 0 0 2.669 1.761c.343 0 13.345-1.514 14.127-2.755z" fill="url(#h)" transform="translate(-178.985 -116.804)"/><path d="m521.635 324.693s2.018 10.045 5.01 12.573c0 0-19.616 15.307-20.529 26.382-1.276 15.307 46.991-8.431 46.991-8.431l-3.34-8.456-20.928 9.278s12.734-8.607 19.081-17.219c4.975-6.831 2.27-13.118-.5-18-.055-.163-12.067 9.766-25.785 3.873z" fill="#72577d" transform="translate(-239.761 -133.961)"/><path d="m521.635 324.693s2.018 10.045 5.01 12.573c0 0-19.616 15.307-20.529 26.382-1.276 15.307 46.991-8.431 46.991-8.431l-3.34-8.456-20.928 9.278s12.734-8.607 19.081-17.219c4.975-6.831 2.27-13.118-.5-18-.055-.163-12.067 9.766-25.785 3.873z" fill="url(#i)" transform="translate(-239.761 -133.961)"/><path d="m592.54 371 3.622-1.246 1.791 4.748-4 2.734z" fill="url(#j)" transform="translate(-282.589 -158.201)"/><path d="m486.663 400.036-.343-2.1a10.327 10.327 0 0 0 7.8-1.932l.212 3.446a8.284 8.284 0 0 1 -7.669.586z" fill="url(#k)" transform="translate(-229.965 -171.212)"/><path d="m472.28 402.72-8.577 3.1s-4.768-1.165-5.721 1.514a5.772 5.772 0 0 0 -.172 4.359s2.25 2.018 7.855.843 14.772-4.036 14.772-4.036l-.343-5.605a9 9 0 0 1 -7.815-.172z" fill="#333" transform="translate(-215.667 -174.542)"/><path d="m599.2 367.232s-2.154.883-1.907 1.453 1.009-.686 2.936 4.4l-1.236.9 2.684 5.736a5.257 5.257 0 0 0 -2.074 4.611c.267 1.4 2.745 1.589 4.727.9s2.841-5.091 2.841-5.091-1.3-10.56-3.966-12.32-4.005-.589-4.005-.589z" fill="#333" transform="translate(-284.938 -156.772)"/><path d="m398.227 318.578-40.493 12.759-18.566-15.418c-7.482 7.649-16.488 1.912-15.252-2.553s9.535-2.851 9.535-2.851l-11.251-9.45 21.049-5.3c.131.742 1.009 4.339 6.12 4.626 5.716.328 7.013-4.324 2.265-6.6l13.35-3.476z" fill="#72577d" transform="translate(-148.647 -118.85)"/><path d="m438.26 335.255a2.411 2.411 0 0 0 -.772.363 4.146 4.146 0 0 0 -.575.686 6.986 6.986 0 0 1 -3.068 1.736 16.923 16.923 0 0 0 -3.532 1.907.863.863 0 0 0 -.368.414c-.166.54.671.807.954 1.3a1.044 1.044 0 0 1 -.172 1.125 3.346 3.346 0 0 1 -.954.727 17.583 17.583 0 0 0 -4.944 4.51 121.239 121.239 0 0 1 19.021-7.921 3.87 3.87 0 0 0 1.408-.676 1.287 1.287 0 0 0 .429-1.408c-.111-.247.277-.313.076-.5-.984-.878-2.639-2.346-3.955-3.421.019.003-2.513.815-3.548 1.158z" fill="#000405" opacity=".05" transform="translate(-199.498 -140.537)"/><path d="m509.489 234.655a6.221 6.221 0 0 0 -10.671 2.144c-.363 1.165-.747 2.563-1.125 4.283-2.018 9.3-11.155 29.52-11.155 29.52l-26.538 14.334 7.265 9.3 31.079-15.307s13.763-30.4 13.516-36.2a13.622 13.622 0 0 0 -2.371-8.072z" fill="#72577d" transform="translate(-216.924 -90.183)"/><path d="m509.489 234.655a6.221 6.221 0 0 0 -10.671 2.144c-.363 1.165-.747 2.563-1.125 4.283-2.018 9.3-11.155 29.52-11.155 29.52l-26.538 14.334 7.265 9.3 31.079-15.307s13.763-30.4 13.516-36.2a13.622 13.622 0 0 0 -2.371-8.072z" fill="url(#l)" opacity=".61" transform="translate(-216.924 -90.183)"/><path d="m444.656 339.05a34.888 34.888 0 0 1 -5.856 1.05 46.823 46.823 0 0 0 -8.844 2.523s.3 2.069 1.907 1.781 3.562-.419 3.562-.419l-5.716 3.426-5.262 3.365s1.372 1.589 2.876.878a7.7 7.7 0 0 0 2.689 1.246 30.972 30.972 0 0 1 4.384 1.741 18.666 18.666 0 0 0 3.163.479c.308-.136 11.574-7.023 11.649-8.456z" fill="url(#m)" transform="translate(-199.31 -142.995)"/><path d="m242.2 331.73 9.687 3.824v5.746s-11.6.247-11.6 5.277 10.943 8.975 18.279 2.26l16.7 9.586-.605 4.914-50.78 18.363-29.091-35.49v-5.736z" fill="#3f3d56" transform="translate(-85.518 -139.368)"/><path d="m242.2 320.5 9.707 9.47s-11.6.252-11.6 5.282 10.943 8.975 18.279 2.255l16.7 15.307-50.866 17.931-29.626-35.74 19.959-6.1s-6.347-4.268-.247-7.119a9.743 9.743 0 0 1 3.6-.974c4.788-.192 5.55 2.275 6.18 4.975v.212z" fill="#72577d" transform="translate(-85.518 -133.804)"/><path d="m204.205 344.36s8.072 17.547 11.912 20.458c2.139 1.625 16.927 6.448 29.484 7.129 1.176.066 4.848-3.34 6.584-2.891 2.523.661-.459 2.926.126 2.956 7.568.358 11.76-2.956 11.76-2.956l-39.857 14.389-26.7-38.293z" fill="#000405" opacity=".05" transform="translate(-86.866 -145.626)"/><path d="m287.28 400.025a29.681 29.681 0 0 1 4.611-4.8 18.116 18.116 0 0 1 4.48-1.912s.706 2.144-.5 2.548-1.907 2.523-1.907 2.523 8.809 1.685 9.874 1.165 1.165 1.13-.913 1.438-2.018 3.289-3.431 3.532-3.506 1.589-5.585 2.089a27.449 27.449 0 0 1 -7.215-.333z" fill="url(#n)" transform="translate(-131.053 -169.88)"/><path d="m168.642 321.939a31.386 31.386 0 0 0 -14.354-32.365 14.868 14.868 0 0 0 -6.4-2.467c-9.228-.535-19.066 66.143-19.066 66.143s4.445 12.916 17.9 14.157c12.431 1.15 14.853-6.332 14.853-6.332z" fill="#72577d" transform="translate(-52.832 -117.257)"/><path d="m168.642 321.939a31.386 31.386 0 0 0 -14.354-32.365 14.868 14.868 0 0 0 -6.4-2.467c-9.228-.535-19.066 66.143-19.066 66.143s4.445 12.916 17.9 14.157c12.431 1.15 14.853-6.332 14.853-6.332z" fill="url(#o)" opacity=".61" transform="translate(-52.832 -117.257)"/><path d="m166.61 256.776s1.352-10.06 1.907-16.6 2.7-15.307 13.688-14.162 10.978 17.759 7.926 24.722-7.109 6.735-7.109 6.735-5.469-1.206-5.282 5.378z" fill="url(#p)" transform="translate(-71.556 -86.936)"/><path d="m170.451 220.468a12.381 12.381 0 0 0 -3.355 5.605 30.021 30.021 0 0 0 -1.009 5.3l1.125-1.221a82.242 82.242 0 0 1 -.706 9.182 49.8 49.8 0 0 0 -.5 8.577l2.018-.1 2.523 3.158 2.84-1.917 2.134-1.125 1.907-4.692a2.644 2.644 0 0 1 -.913-3.057c.706-1.912 2.437-2.356 2.84-1.226a21.83 21.83 0 0 1 .5 4.283l3.027-8.577s1.907-2.664 3.567-.822a8.844 8.844 0 0 0 3.658 2.447l-1.009-2.871 2.745.706-.212-3.269 2.018 1.433s.913-5.3-.822-7.654-8.527-11.718-22.376-4.16z" fill="#333" transform="translate(-71.245 -82.806)"/><path d="m230.736 357.562-22.471-2.432a14.793 14.793 0 0 1 -11.865-12.512l-8.31-25.352a8.935 8.935 0 0 0 -7.169-6.14 7.775 7.775 0 0 0 -8.577 9.99l8.577 30.609a14.772 14.772 0 0 0 13.345 12.951l35.246 4.6z" fill="#72577d" transform="translate(-74.226 -129.117)"/><path d="m230.736 357.562-22.471-2.432a14.793 14.793 0 0 1 -11.865-12.512l-8.31-25.352a8.935 8.935 0 0 0 -7.169-6.14 7.775 7.775 0 0 0 -8.577 9.99l8.577 30.609a14.772 14.772 0 0 0 13.345 12.951l35.246 4.6z" fill="url(#q)" opacity=".61" transform="translate(-74.226 -129.117)"/><path d="m171.974 477-6.614 1.514 2.649 7.654 6.922-1.6s1.851-5.918-2.957-7.568z" fill="url(#r)" transform="translate(-70.936 -211.346)"/><path d="m158.6 477.522s4.329-.918 5.045.555-1.584 1.377-1.125 3.466a42.174 42.174 0 0 0 1.428 4.687l2.134-.479.439 2.523a1.922 1.922 0 0 0 1.907 1.514c4.995.288 4.329 4.818 2.573 4.99l-6.463.5-3.416-2.876a2.714 2.714 0 0 1 -.933-1.13c-1.25-2.443-5.079-11.55-1.589-13.75z" fill="#333" transform="translate(-66.877 -211.465)"/><path d="m299.822 85.041a9.732 9.732 0 0 0 -.858 1.514c-1.448 3.1-6.347 14.177-7.063 23.778a9.551 9.551 0 0 1 -9 8.955l-8.748.5-2.861.151a9.535 9.535 0 0 1 -9.914-7.654c-1.791-8.839-5.605-22.345-13.017-28.314 0 0-32.678-29.923-10.888-63.292a51.834 51.834 0 0 1 4.9-6.392c22.87-25.317 60.618-13.784 69.69 9.732s-8.634 55.951-12.241 61.022z" fill="#72577d" opacity=".4" transform="translate(-102.955 24.993)"/><path d="m323.3 233.08c-.762 1.912-1.64 2.83-.878 4.1s2.956 4.672-8.178 6.185a60.6 60.6 0 0 1 -6.957.555h-3.643l-2.134-.1c-2.437-.151-4.4-.4-5.716-.61a5.131 5.131 0 0 1 -3.532-2.24 2.649 2.649 0 0 1 .4-2.755 1.473 1.473 0 0 0 .076-2.084 1.549 1.549 0 0 0 -.535-.363 3.168 3.168 0 0 1 -.192-4.42 3.728 3.728 0 0 0 .671-.959 3.274 3.274 0 0 0 -.439-3.35l-.308-.378a5.55 5.55 0 0 1 -.913-1.917 2.866 2.866 0 0 1 .459-2.866 9.53 9.53 0 0 0 9.909 7.649l2.861-.172a1.392 1.392 0 0 0 .192-.363c.5-1.221-.631-2.639-.056-4.541l2.149-.1a59.66 59.66 0 0 0 15.519-3.027 3.093 3.093 0 0 1 .762 3.829 4.753 4.753 0 0 0 -.4 1.337 4.859 4.859 0 0 0 .474 2.83 2.642 2.642 0 0 0 .172.308 3.829 3.829 0 0 1 .237 3.452z" fill="#72577d" transform="translate(-133.104 -84.668)"/><path d="m292.17 220.346a65.4 65.4 0 0 1 30.5-.555s-16.53 6.771-30.5.555z" fill="#333" transform="translate(-133.768 -83.144)"/><path d="m306.148 244.286a10.09 10.09 0 0 1 -2.523.172l-2.139-.1c-2.437-.151-4.4-.4-5.716-.61a5.131 5.131 0 0 1 -3.532-2.24 2.644 2.644 0 0 1 .4-2.755 1.513 1.513 0 0 0 .444-1.352 1.468 1.468 0 0 0 -.9-1.095 3.163 3.163 0 0 1 -.187-4.42 3.224 3.224 0 0 0 .227-4.3 5.766 5.766 0 0 1 -1.181-2.28 2.876 2.876 0 0 1 .454-2.866 37.511 37.511 0 0 0 15 2.447l.247.116s-1.907.727-1.413 2.391 1.221 4.667-.419 6.619 1.514 2.487.918 4.687v.212a12.2 12.2 0 0 0 -.555 2.018c-.341 1.731-.18 3.204.875 3.356z" fill="url(#s)" transform="translate(-133.109 -85.217)"/><path d="m276.372 124.178a37.41 37.41 0 0 1 -15.02-2.447c-1.776-8.784-5.59-22.29-13-28.253 0 0-32.678-29.923-10.888-63.292a51.835 51.835 0 0 1 4.9-6.392l2.936-.267s19.545-10.3 27.835.974-9.8 24.01-10.751 44.595 22.595 24.392 13.988 55.082z" fill="#fff" opacity=".49" transform="translate(-102.95 15.471)"/><path d="m322.1 252.519c-1.413.918-6.483 2.644-15.519 2.018a66.267 66.267 0 0 1 -12.522-2.22 1.473 1.473 0 0 0 .076-2.084 1.549 1.549 0 0 0 -.535-.363 44.423 44.423 0 0 0 13.622 2.391 51.517 51.517 0 0 0 15.418-1.912s1.574.792-.54 2.17z" fill="url(#t)" transform="translate(-134.476 -98.808)"/><path d="m323.972 234.386c-1.7 1.418-8.1 4.036-17.366 3.138a51.007 51.007 0 0 1 -12.83-2.124 3.264 3.264 0 0 0 -.439-3.345l-.308-.383c.61.232 1.64.555 3.027.918a53.479 53.479 0 0 0 9.535 1.514h1.483a42.521 42.521 0 0 0 16.453-2.6 4.833 4.833 0 0 0 .445 2.882z" fill="url(#u)" transform="translate(-134.194 -89.707)"/><path d="m228.61 328.81.116 5.045 2.8-.863s-2.916-2.023-2.916-4.182z" fill="#3f3d56" transform="translate(-102.275 -137.921)"/><path d="m319.958 106.707-.61-.414a20.912 20.912 0 0 0 .954-8.642c-.727-6.175-5.086-9.944-12.26-10.595-11-1.044-15.353 4.632-16.967 8.1-4.662 9.7-.444 25.413 6.276 32.461 8.284 8.648 5.086 24.954 3.915 29.767a1.514 1.514 0 0 0 -.076.363v.323l1.69.575.121-.474a55.041 55.041 0 0 0 1.736-11.781c.3-8.577-1.756-15.514-5.958-20.055-6.206-6.5-10.237-21.518-5.953-30.4 2.6-5.323 7.84-7.775 15.171-7.094 7.977.757 10.181 5.333 10.625 9.021a19.035 19.035 0 0 1 -.812 7.492 8.314 8.314 0 0 0 -5.762-.646c-3.779 1.039-6.165 4.954-7.5 8.042a4.3 4.3 0 0 0 .792 4.647 4.258 4.258 0 0 0 4.47 1.145c3.406-1.206 6.957-5.383 8.955-10.479l.2.136c5.55 3.905 1.589 9.924-2.967 16.9-3.244 4.889-7.27 10.973-7.7 16.967a86.783 86.783 0 0 0 .091 15.015l.025.429h1.816l-.025-.5a88.539 88.539 0 0 1 -.091-14.8c.388-5.489 4.1-11.135 7.366-16.145l.146-.227c4.724-7.285 9.199-14.197 2.332-19.131zm-10.817 10.093a2.356 2.356 0 0 1 -2.523-.661 2.457 2.457 0 0 1 -.454-2.689c.959-2.225 3.057-6.1 6.322-7.013a5.509 5.509 0 0 1 1.433-.192 7.6 7.6 0 0 1 3.2.827c-1.9 4.808-5.136 8.779-7.976 9.737zm9.172-10.156.081.055z" fill="#fff" transform="translate(-132.248 -18.075)"/></svg>