<svg height="350" viewBox="0 0 350 350" width="350" xmlns="http://www.w3.org/2000/svg" xmlns:xlink="http://www.w3.org/1999/xlink"><linearGradient id="a" gradientUnits="objectBoundingBox" x1="1.37" x2="-.39" y1=".644" y2=".377"><stop offset=".01"/><stop offset=".13" stop-opacity=".69"/><stop offset="1" stop-opacity="0"/></linearGradient><linearGradient id="b" gradientUnits="objectBoundingBox" x1="-31.182" x2="-30.083" y1="58.67" y2="58.67"><stop offset="0" stop-color="#e5c5d5"/><stop offset=".42" stop-color="#ead4d1"/><stop offset="1" stop-color="#f0e9cb"/></linearGradient><linearGradient id="c" gradientUnits="objectBoundingBox" x2="1" y1=".5" y2=".5"><stop offset=".02" stop-color="#fff" stop-opacity="0"/><stop offset=".32" stop-color="#fff" stop-opacity=".388"/><stop offset=".68" stop-color="#fff" stop-opacity=".678"/><stop offset="1" stop-color="#fff"/></linearGradient><linearGradient id="d" x1=".496" x2=".504" xlink:href="#a" y1="1.521" y2="-.405"/><linearGradient id="e" x1=".5" x2=".5" xlink:href="#a" y1="-1.846" y2="2.768"/><linearGradient id="f" x1=".561" x2=".484" xlink:href="#c" y1=".04" y2="1.194"/><linearGradient id="g" x1=".562" x2=".41" xlink:href="#a" y1="-.787" y2="2.828"/><linearGradient id="h" x1=".505" x2=".492" xlink:href="#a" y1="1.141" y2="-.821"/><linearGradient id="i" x1="1.226" x2="-.458" xlink:href="#a" y1=".494" y2=".52"/><linearGradient id="j" x1="0" x2="1.001" xlink:href="#b" y1=".501" y2=".501"/><linearGradient id="k" x1="1.552" x2="-.189" xlink:href="#a" y1=".537" y2=".482"/><linearGradient id="l" x1="-7.899" x2="-7.083" xlink:href="#b" y1="2.763" y2="2.763"/><linearGradient id="m" x1="0" x2="1.001" xlink:href="#b" y1=".5" y2=".5"/><linearGradient id="n" x1="-.001" x2="1.002" xlink:href="#b" y1=".501" y2=".501"/><path d="m0 0h350v350h-350z" fill="none"/><path d="m324.358 294.9c-4.813 2.9-10.22 5.551-15.859 8.407-21.523 10.966-46.615 12.153-70.3 13.052l-113.437 4.332c-19.108.722-38.93 1.324-56.522-6.145a71.683 71.683 0 0 1 -26.24-19.626c-11.383-13.268-18.956-30.379-22.774-47.569-6.241-28.125-4.26-57.308-4.733-86.106-.273-16.774-1.388-33.692 1.492-50.225s10.315-33.01 23.863-42.909c18.218-13.3 42.075-11.993 63.372-14.792 22.461-2.952 41.713-13.918 61.728-23.825 20.97-10.365 44.852-15.916 68.275-13.694 23.68 2.262 40.847 13.043 54.115 32.833a97.867 97.867 0 0 1 16.18 45.773c1.709 19.252-2.318 38.81.537 57.942 5.615 37.486 36.612 67.937 40.053 105.688 1.805 19.709-6.939 29.159-19.75 36.864z" fill="#72577d" opacity=".18" transform="translate(-3.736 7.199)"/><path d="m331.25 363.85c-4.813 2.9-10.22 5.551-15.859 8.407-21.523 10.966-46.615 12.153-70.3 13.051l-113.44 4.332c-19.108.722-38.93 1.324-56.522-6.145a71.682 71.682 0 0 1 -26.239-19.629z" fill="#72577d" opacity=".41" transform="translate(-10.628 -61.747)"/><path d="m212.509 91.215c-.144 3.626.353 7.22.513 10.87a10.717 10.717 0 0 1 -.393 4.011c-.9 2.5-3.337 4.067-5.615 5.447-1.444.874-3.088 2.126-2.888 3.81a3.008 3.008 0 0 0 2.727 2.358 8.182 8.182 0 0 0 3.778-.738 17.391 17.391 0 0 0 6.5-3.834c3.634-3.778 3.754-9.626 3.481-14.864-.233-4.4-.61-9.225-2.84-13.14-3.595-6.258-5.135 2.943-5.263 6.08z" fill="#72577d" transform="translate(-41.333 -6.191)"/><path d="m212.509 91.215c-.144 3.626.353 7.22.513 10.87a10.717 10.717 0 0 1 -.393 4.011c-.9 2.5-3.337 4.067-5.615 5.447-1.444.874-3.088 2.126-2.888 3.81a3.008 3.008 0 0 0 2.727 2.358 8.182 8.182 0 0 0 3.778-.738 17.391 17.391 0 0 0 6.5-3.834c3.634-3.778 3.754-9.626 3.481-14.864-.233-4.4-.61-9.225-2.84-13.14-3.595-6.258-5.135 2.943-5.263 6.08z" fill="url(#a)" transform="translate(-41.333 -6.191)"/><path d="m199.786 120.095c-1.661-.578-3.425-1.364-5.086-.8a1.011 1.011 0 0 0 -.714.6 1.139 1.139 0 0 0 .088.65l1.925 5.7a3.137 3.137 0 0 0 .377.8 2.615 2.615 0 0 0 1.468.842 10.2 10.2 0 0 0 6.337-.3c2.1-.8 2.286-3.385 1.171-5.2s-3.64-1.627-5.566-2.292z" fill="url(#b)" transform="translate(-39.328 -13.331)"/><path d="m196.272 107.49c.545.136.337.457.393 1.011.377 3.514.056 7.468.8 10.91s3.04 6.49 3.465 10a47.592 47.592 0 0 1 -4.067-10.557c-.15-.936-1.418-11.364-.591-11.364z" fill="#3e3e54" transform="translate(-39.728 -11.035)"/><path d="m212.2 148.54s-15.931 19.028-5.31 35.336 29.464 28.437 36.636 40.775-5.84 25.718-10.356 28.221-45.66 32.833-20.175 63.982h86.018s27.876-28.221-18.587-62.306c0 0-33.186-16.934-2.126-40.984s36.636-46.944 21.908-64.816z" fill="#72577d" transform="translate(-41.161 -19.155)"/><path d="m212.2 148.54s-15.931 19.028-5.31 35.336 29.464 28.437 36.636 40.775-5.84 25.718-10.356 28.221-45.66 32.833-20.175 63.982h86.018s27.876-28.221-18.587-62.306c0 0-33.186-16.934-2.126-40.984s36.636-46.944 21.908-64.816z" fill="url(#c)" transform="translate(-41.161 -19.155)"/><rect fill="#72577d" height="8.158" rx="4.079" width="107.717" x="160.282" y="121.596"/><rect fill="#72577d" height="8.158" rx="4.079" width="107.717" x="160.282" y="298.02"/><rect fill="url(#d)" height="8.158" rx="4.079" transform="translate(160.282 121.596)" width="107.717"/><rect fill="url(#e)" height="8.158" rx="4.079" transform="translate(160.282 298.02)" width="107.717"/><path d="m295.836 298.469c-14.576-7.781-62.8-9.073-71.956-2.407a75.176 75.176 0 0 1 20.279-17.969c11.551-7.22 24.691-.947 24.691-.947s16.71 8.554 26.986 21.323z" fill="url(#f)" transform="translate(-45.244 -44.096)"/><path d="m293.375 345.4h-72.084l-2.784-2.5c-8.23-14.086-6.209-26.528-.8-36.427a50.1 50.1 0 0 1 4.011-6.137c9.153-6.706 57.38-5.415 71.956 2.407a44.179 44.179 0 0 1 4.011 5.856 32.963 32.963 0 0 1 2.038 4.227c7.185 18.149-6.348 32.574-6.348 32.574z" fill="#72577d" transform="translate(-43.088 -48.325)"/><path d="m298.868 308.55c-3.441 12.53-37.759-6.586-53.746-8.022-10.557-.939-21.707 5.487-21.707 5.487s-3.6 1.308-4.564.433a50.1 50.1 0 0 1 4.011-6.137c9.153-6.706 57.38-5.415 71.956 2.407a44.176 44.176 0 0 1 4.05 5.832z" fill="url(#g)" transform="translate(-44.249 -48.321)"/><path d="m223.67 203.83s24.691 19.445 26.288 23.207 14.439 5.96 18.45 2.615 14.2-9.722 24.29-24.154-23.095-5.014-34.245-2.92-30.267-11.503-34.783 1.252z" fill="#72577d" transform="translate(-45.202 -28.865)"/><path d="m223.19 202.918s9.562 6.273 18.057 4.388 14.07-7.316 25.75-6.273 23.36 6.064 27.082.634-.265-9.835-11.952-8.367-31.061 1.669-40.35 1.043-26.277.842-18.587 8.575z" fill="#72577d" transform="translate(-44.723 -27.953)"/><path d="m223.19 202.918s9.562 6.273 18.057 4.388 14.07-7.316 25.75-6.273 23.36 6.064 27.082.634-.265-9.835-11.952-8.367-31.061 1.669-40.35 1.043-26.277.842-18.587 8.575z" fill="url(#h)" transform="translate(-44.723 -27.953)"/><g fill="#72577d"><path d="m266.248 245.658a4.733 4.733 0 0 0 -1.6 1.781 1.861 1.861 0 0 0 -.193 1.492 1.46 1.46 0 0 0 1.388.9 2.631 2.631 0 0 0 1.38-.554c.8-.521 1.685-1.187 1.564-2s-1.372-1.388-2.447-1.709" transform="translate(-53.254 -38.349)"/><path d="m272.074 254.926a2.077 2.077 0 0 0 -.746.361c-.112.1-.177.2-.088.3a.939.939 0 0 0 .634.184 2.8 2.8 0 0 0 .634-.112c.369-.112.8-.249.714-.409s-.626-.281-1.115-.345" transform="translate(-54.604 -40.197)"/><path d="m266.695 257.856a2.077 2.077 0 0 0 -.746.361c-.112.1-.168.209-.088.3a.939.939 0 0 0 .634.185 2.407 2.407 0 0 0 .634-.112c.369-.1.8-.241.722-.409s-.634-.281-1.123-.345" transform="translate(-53.541 -40.777)"/><path d="m275.08 271.453a2.912 2.912 0 0 0 -1.1-.233c-.209 0-.393.048-.441.2a.8.8 0 0 0 .353.634 2.509 2.509 0 0 0 .69.369c.457.177.971.353 1.123.168s-.225-.714-.586-1.139" transform="translate(-55.067 -43.423)"/><path d="m259.2 289.233a2.9 2.9 0 0 0 -1.091-.233c-.217 0-.4.056-.441.2a.757.757 0 0 0 .345.634 2.407 2.407 0 0 0 .7.369c.449.176.971.353 1.115.168s-.225-.714-.578-1.139" transform="translate(-51.926 -46.941)"/><path d="m216.776 83.407a10.035 10.035 0 0 1 1.6-6.04 13.846 13.846 0 0 1 4.548-4.34 5.463 5.463 0 0 1 3.446-1.027c1.019.128 4.548-3.706 5.375-3.1 2.326 1.725 1.861 8.1 3.834 10.228a63.43 63.43 0 0 1 .963 8.631l1.179 21.868c.193 3.618.289 7.557-1.877 10.428a123.271 123.271 0 0 1 -15.883-7.075 2.7 2.7 0 0 1 -1.757-2.952c-.217-5.439-.217-10.894 0-16.332.096-2.917-1.187-7.369-1.428-10.289z" transform="translate(-43.835 -3.389)"/></g><path d="m216.776 83.407a10.035 10.035 0 0 1 1.6-6.04 13.846 13.846 0 0 1 4.548-4.34 5.463 5.463 0 0 1 3.446-1.027c1.019.128 4.548-3.706 5.375-3.1 2.326 1.725 1.861 8.1 3.834 10.228a63.43 63.43 0 0 1 .963 8.631l1.179 21.868c.193 3.618.289 7.557-1.877 10.428a123.271 123.271 0 0 1 -15.883-7.075 2.7 2.7 0 0 1 -1.757-2.952c-.217-5.439-.217-10.894 0-16.332.096-2.917-1.187-7.369-1.428-10.289z" fill="url(#i)" transform="translate(-43.835 -3.389)"/><path d="m211.31 63.168v.626a3.923 3.923 0 0 0 .618 2.222c.8.995 2.262 1.035 3.506.85a8.255 8.255 0 0 1 2.968-.2c.987.217 2.078 4.26 3.024 4.42 1.725.3 5.383-1.821 6.57-2.888.12-.1-1.259-3.209-1.211-3.377a1.043 1.043 0 0 0 0-.5l-1.925-8.952a8.559 8.559 0 0 0 -1.356-3.562 5.735 5.735 0 0 0 -2.11-1.6c-2.719-1.243-6.706-.8-8.7 1.669-1.051 1.308-1.035 3.578-1.2 5.182a40.7 40.7 0 0 0 -.185 6.113z" fill="url(#j)" transform="translate(-42.749 .43)"/><path d="m221.672 139.827c-5.31 3.425-11.375 5.447-17.367 7.428-1.476.489-3.209.955-4.516.168a5.006 5.006 0 0 1 -1.693-2.054c-2.358-4.476-8.254-5.808-5.359-9.955 1.227-1.765 8.182-7.549 9.9-8.824 3.4-2.527 6.963-5.126 11.142-5.824a20.624 20.624 0 0 1 5.92 0c3.794.457 13.364 1.917 12.562 6.786s-6.747 9.772-10.589 12.275z" fill="#3e3e54" transform="translate(-38.928 -13.619)"/><path d="m227.033 88.195c0 3.209.337 6.417-.722 9.434-1.42 4.011-5.126 6.762-8.824 8.928-2.286 1.348-4.765 2.7-5.992 5.046s-.361 5.968 2.246 6.417a6.161 6.161 0 0 0 2.976-.433 83.083 83.083 0 0 0 14.56-6.417 13.492 13.492 0 0 0 5-4.123 13.14 13.14 0 0 0 1.6-6.056 60.59 60.59 0 0 0 -.4-13.637 29.784 29.784 0 0 0 -4.107-10c-6.337-8.588-6.337 6.108-6.337 10.841z" fill="#72577d" transform="translate(-42.685 -4.55)"/><path d="m227.033 88.195c0 3.209.337 6.417-.722 9.434-1.42 4.011-5.126 6.762-8.824 8.928-2.286 1.348-4.765 2.7-5.992 5.046s-.361 5.968 2.246 6.417a6.161 6.161 0 0 0 2.976-.433 83.083 83.083 0 0 0 14.56-6.417 13.492 13.492 0 0 0 5-4.123 13.14 13.14 0 0 0 1.6-6.056 60.59 60.59 0 0 0 -.4-13.637 29.784 29.784 0 0 0 -4.107-10c-6.337-8.588-6.337 6.108-6.337 10.841z" fill="url(#k)" transform="translate(-42.685 -4.55)"/><path d="m187.192 157.244-1.372 26.256c3.209-.2 4.669-3.923 5.439-7q3.273-13.076 6.554-26.151c.642-2.583 1.3-5.27.8-7.885-.353-1.853-2.022-5.07-4.244-5.27-2.366-.209-3.61 2.832-4.428 4.661-2.141 4.808-2.485 10.223-2.749 15.389z" fill="url(#l)" transform="translate(-37.715 -16.909)"/><path d="m193.455 159.32.931 26.271c3.137-.481 4.3-4.316 4.813-7.444q2.118-13.308 4.244-26.624c.417-2.631.8-5.359.112-7.926-.513-1.813-2.455-4.869-4.685-4.877-2.407 0-3.345 3.129-4.011 5.03-1.717 4.95-1.589 10.436-1.404 15.57z" fill="url(#m)" transform="translate(-39.205 -17.213)"/><path d="m190.565 188.254-2.984.217a2.27 2.27 0 0 0 -1.693.618 2.158 2.158 0 0 0 -.345 1.267 42.628 42.628 0 0 0 0 4.749.393.393 0 0 0 0 .193.417.417 0 0 0 .377.144 6.77 6.77 0 0 0 3.257-.866 2.711 2.711 0 0 0 1.059-.882 3.04 3.04 0 0 0 .361-1.492c.08-1.34.112-2.687.064-4.011z" fill="#72577d" transform="translate(-37.647 -26.999)"/><path d="m189.059 194.885a.714.714 0 0 0 -.1-.321.473.473 0 0 0 -.594-.072 2.1 2.1 0 0 0 -.465.457 3.209 3.209 0 0 1 -2.03 1.107 14.485 14.485 0 0 0 -2.407.144 4.452 4.452 0 0 0 -1.532 1l-2.6 2.246c-.61.521-1.275 1.2-1.131 2a1.885 1.885 0 0 0 1.6 1.291 8.5 8.5 0 0 0 3.883-.481 29.174 29.174 0 0 0 3.4-1.139 3.618 3.618 0 0 0 1.508-1.027c.901-1.19.604-3.801.468-5.205z" fill="#3e3e54" transform="translate(-36.205 -28.231)"/><path d="m199.487 188.7-3.008.233a2.3 2.3 0 0 0 -1.7.618 2.23 2.23 0 0 0 -.337 1.267c-.088 1.6-.1 3.209-.04 4.749a.561.561 0 0 0 .04.2.409.409 0 0 0 .369.136 6.69 6.69 0 0 0 3.265-.866 2.679 2.679 0 0 0 1.059-.874 3.208 3.208 0 0 0 .353-1.492q.136-2.022.072-4.011z" fill="#72577d" transform="translate(-39.405 -27.092)"/><path d="m197.989 195.294a.674.674 0 0 0 -.088-.329.473.473 0 0 0 -.6-.064 1.9 1.9 0 0 0 -.457.457 3.209 3.209 0 0 1 -2.03 1.1 15.321 15.321 0 0 0 -2.407.152 4.46 4.46 0 0 0 -1.54.995l-2.6 2.246c-.6.529-1.267 1.211-1.131 2a1.893 1.893 0 0 0 1.6 1.292 8.415 8.415 0 0 0 3.891-.481 28.2 28.2 0 0 0 3.4-1.139 3.569 3.569 0 0 0 1.5-1.027c.895-1.196.598-3.783.462-5.202z" fill="#3e3e54" transform="translate(-37.972 -28.31)"/><path d="m202.585 123.306c-1.749.088-3.682 0-5.014 1.155a1 1 0 0 0 -.441.8 1.131 1.131 0 0 0 .321.57l3.923 4.564a2.937 2.937 0 0 0 .666.634 2.631 2.631 0 0 0 1.669.225 10.124 10.124 0 0 0 5.768-2.647c1.6-1.532.858-4.011-.858-5.254s-3.997-.153-6.034-.047z" fill="url(#n)" transform="translate(-39.952 -14.056)"/><path d="m226.039 41.881c5.5.473 10.428 3.955 13.765 8.351 3.473 4.572 6.249 10.645 11.864 11.848 2.527.545 5.166-.072 7.733.193a11.592 11.592 0 0 1 9.915 9.1c.6 3.12-.136 6.345.185 9.506.634 6.233 5.335 12.161 3.578 18.169a9.321 9.321 0 0 1 -11.864 5.816c-4.941-1.933-7.083-7.573-10.428-11.712-1.452-1.8-3.578-3.5-5.856-3.072-1.131.217-2.118.931-3.209 1.219-2.567.666-5.238-1.139-6.546-3.449s-1.6-5.038-2.013-7.653c-.594-3.69-1.6-7.476-4.011-10.308-2.984-3.465-7.837-5.19-10.091-9.169-1.332-2.358-1.564-5.142-2.776-7.541-1.075-2.11-3.137-3.209-2.23-5.7 1.516-4.13 8.174-5.919 11.984-5.598z" fill="#3e3e54" transform="translate(-43.256 1.951)"/><path d="m210.211 47.946a4.3 4.3 0 0 0 1.115 3.786 17.416 17.416 0 0 0 3.209 2.575 8.286 8.286 0 0 1 2.8 2.952 1.388 1.388 0 0 0 .337.537.433.433 0 0 0 .57 0 .594.594 0 0 0 .112-.369c.16-2.246-.249-4.484-.249-6.73 0-1.524.457-3.465-.457-4.813-1.758-2.606-6.731-.513-7.437 2.062z" fill="#3e3e54" transform="translate(-42.524 1.389)"/><path d="m190.44 107.754a2.5 2.5 0 0 0 .377 1.781 2.078 2.078 0 0 0 3.064-.209 4.669 4.669 0 0 0 .8-3.345 5.7 5.7 0 0 0 .642 3.088 1.975 1.975 0 0 0 2.743.666 2.11 2.11 0 0 0 .618-1.685 4.139 4.139 0 0 0 -1.227-2.864 3.128 3.128 0 0 0 1.749 1.243 1.989 1.989 0 0 0 1.083 0 1.693 1.693 0 0 0 1.043-1.821 2.639 2.639 0 0 0 -1.259-1.8 6.586 6.586 0 0 0 -2.134-.8c.537-.385 1.155-.65 1.685-1.043a2.27 2.27 0 0 0 1.027-1.6 2.031 2.031 0 0 0 -2.286-1.829 5.2 5.2 0 0 0 -2.856 1.548 6.53 6.53 0 0 0 -2.5-1.484 2.735 2.735 0 0 0 -2.711.658 2.166 2.166 0 0 0 .658 3.209 20.363 20.363 0 0 1 -2.1.1 2.174 2.174 0 0 0 -1.773.979 1.685 1.685 0 0 0 .65 2.062 2.752 2.752 0 0 0 2.278.249c.481-.144 1.38-.89 1.813-.554-.462 1.253-1.248 2.087-1.384 3.451z" fill="#72577d" transform="translate(-37.939 -9.053)"/><ellipse cx="156.832" cy="93.343" fill="#fff" rx="2.719" ry="2.03"/></svg>