<svg height="600" viewBox="0 0 600 600" width="600" xmlns="http://www.w3.org/2000/svg" xmlns:xlink="http://www.w3.org/1999/xlink"><linearGradient id="a" gradientUnits="objectBoundingBox" x1=".535" x2=".457" y1="2.693" y2="-1.742"><stop offset=".01"/><stop offset=".13" stop-opacity=".69"/><stop offset=".25" stop-opacity=".322"/><stop offset="1" stop-opacity="0"/></linearGradient><linearGradient id="b" x1="-2.748" x2="3.502" xlink:href="#a" y1="1.259" y2="-.097"/><linearGradient id="c" x1=".67" x2=".229" xlink:href="#a" y1="1.411" y2="-1.773"/><linearGradient id="d" x1=".608" x2=".247" xlink:href="#a" y1="1.742" y2="-2.614"/><linearGradient id="e" x1="65.003" x2="66.583" xlink:href="#a" y1=".214" y2="1.247"/><linearGradient id="f" x1="44.659" x2="45.314" xlink:href="#a" y1="1.65" y2="-1.164"/><linearGradient id="g" x1="18.062" x2="19.596" xlink:href="#a" y1="-.458" y2="1.916"/><linearGradient id="h" x1="1.107" x2="-.786" xlink:href="#a" y1="-1.085" y2="3.452"/><linearGradient id="i" x1="168.944" x2="170.783" xlink:href="#a" y1="-.351" y2="1.967"/><linearGradient id="j" x1=".535" x2=".457" xlink:href="#a" y1="2.695" y2="-1.744"/><linearGradient id="k" x1="-2.746" x2="3.506" xlink:href="#a" y1="1.258" y2="-.097"/><linearGradient id="l" x1=".535" x2=".457" xlink:href="#a" y1="2.694" y2="-1.744"/><linearGradient id="m" x1="-2.745" x2="3.506" xlink:href="#a" y1="1.259" y2="-.097"/><linearGradient id="n" x1="1.43" x2="-.71" xlink:href="#a" y1="1.994" y2="-2.009"/><path d="m0 0h600v600h-600z" fill="none"/><path d="m144.717 54.164c-18.936 23.322-30.727 52.319-47.047 77.795-12.074 19.036-26.8 36.08-39.078 55.036-24.469 37.75-39.239 83.771-36.543 129.752s24.151 91.377 59.905 116.553c21.954 15.474 47.932 22.819 73.77 27.588 86.991 16.1 180.622 3.7 254.956-47.631 12.758-8.814 24.972-18.754 38.817-25.435 35.557-17.185 81.678-13.2 107.456-44.753 15.515-19 18.936-46.162 18.412-71.5-.624-30.426-6.58-62.381-25.113-85.2-24.147-29.923-63.588-37.931-96.227-56.344-31.814-17.849-57.471-45.92-84.8-70.993-65.739-60.347-160.316-83.932-224.508-4.868z" fill="#fff" opacity=".18" transform="translate(.938 64.702)"/><path d="m304.528 178.908a13.6 13.6 0 0 1 -4.286 9.941 14.267 14.267 0 0 1 -8.512 3.864 10.587 10.587 0 0 1 -1.791 0l-99.95-2.012a14.71 14.71 0 0 1 -14.549-14.468 13.683 13.683 0 0 1 4.246-9.961 14.629 14.629 0 0 1 10.3-4.025h3.4a27.853 27.853 0 0 1 -1.066-7.586 26.945 26.945 0 0 1 8.411-19.6 27.869 27.869 0 0 1 8.049-5.373 29.078 29.078 0 0 1 12.235-2.415l8.492.181a29.5 29.5 0 0 1 25.536 15.817 17.286 17.286 0 0 1 7.848-1.67h2.193a17.467 17.467 0 0 1 17.285 17.165v.825a16.1 16.1 0 0 1 -.684 4.628l8.271.161a14.77 14.77 0 0 1 14.572 14.528z" fill="#fff" transform="translate(156.532 189.702)"/><path d="m291.73 173.091a10.587 10.587 0 0 1 -1.791 0l-99.95-2.012a14.71 14.71 0 0 1 -14.549-14.468 13.684 13.684 0 0 1 4.246-9.961c-4.025 24.691 21.833 21.149 21.833 21.149h64.936z" fill="url(#a)" transform="translate(156.532 209.323)"/><path d="m192.191 163.9-7.264-2.757a27.851 27.851 0 0 1 -1.066-7.586 26.944 26.944 0 0 1 8.411-19.6 27.87 27.87 0 0 1 8.049-5.373c-20.103 17.221-8.13 35.316-8.13 35.316z" fill="url(#b)" transform="translate(165.056 191.031)"/><ellipse cx="235.986" cy="393.623" fill="#72577d" opacity=".23" rx="127.86" ry="115.485"/><path d="m330.886 217.974a123.01 123.01 0 0 1 -24.852 74.293l-.262.362a123.494 123.494 0 1 1 25.113-74.656z" fill="#72577d" transform="translate(63.849 156.512)"/><path d="m161.507 156.494c-6.781 2.8-14.267 3.461-21.23 5.755s-13.945 6.922-15.736 14.086c-.926 3.6-.443 7.606-2.214 10.866-2.354 4.387-7.868 6.037-11.208 9.659-6.359 7-2.173 19.016 5.594 24.429s17.688 6.238 26.985 7.828a12.778 12.778 0 0 1 6.962 2.757c5.413 5.172-.584 14.529 1.71 21.652 1.288 4.025 5.091 6.781 6.822 10.645 3.32 7.365-1.71 15.495-5.031 22.859a56.787 56.787 0 0 0 -1.509 42.5 8.289 8.289 0 0 1 -.765.946 124.38 124.38 0 0 1 -35.839-23.866c-10.2-14.307-18.272-29.9-17.426-47.047.463-9.3 3.562-18.272 4.145-27.528.966-15.032-4.467-31.351 2.9-44.471 4.025-7.264 11.872-15.233 7.486-22.276-7.747 1.127-16.1 1.308-23.2-1.389a123.554 123.554 0 0 1 92.927-68.7c7.644 21.854 1.567 51.636-21.373 61.295z" fill="url(#c)" transform="translate(69.993 157.241)"/><path d="m265.692 204.51a123.255 123.255 0 0 1 -2.193 23.282 83.758 83.758 0 0 0 -9.2 8.713c-9.76 11.43-11.872 27.287-13.462 42.258a2.97 2.97 0 0 1 -.1.946.814.814 0 0 0 -.161-.584 24.852 24.852 0 0 0 -4.89-10.524c-2.777-3-7.707-4.487-11.088-2.133q-2.415-6.037-4.85-11.973c-10.061 0-20.445 0-29.9-3.562s-17.285-10.383-24.848-17.043a166.231 166.231 0 0 0 -.644-34.651 120.254 120.254 0 0 0 76.366-39.058 87.253 87.253 0 0 0 -50.307 12.979c-3.22 2.012-6.48 4.266-10.242 4.588a22.135 22.135 0 0 1 -7.043-.966l-24.33-6.182c-3.039-15.656 7.808-31.371 21.753-39.119 10.464-5.8 23.161-4.668 33.2-9.739 6.882-3.461 8.894-9.518 14.911-13.965h.121a123.272 123.272 0 0 1 46.906 96.73z" fill="url(#d)" transform="translate(129.044 169.976)"/><path d="m164.662 152.705c-.724 2.374-1.409 5.151 0 7.144a6.037 6.037 0 0 0 2.636 1.871 7.224 7.224 0 0 0 7.506-.785 9.74 9.74 0 0 0 2.274-4.266 99.224 99.224 0 0 0 4.025-17.728 3.2 3.2 0 0 0 0-1.69 2.878 2.878 0 0 0 -1.429-1.288c-3.2-1.71-8.21-3.079-10.061.7-2.274 4.874-3.341 10.891-4.951 16.042z" fill="#fbc4d6" transform="translate(144.793 196.768)"/><path d="m175.26 146.018a4.508 4.508 0 0 1 2.012.181 3.542 3.542 0 0 1 1.127.986l6.942 7.787c1.348 1.509 2.757 3.582 1.811 5.373a4.025 4.025 0 0 1 -2.978 1.771 17.648 17.648 0 0 1 -9.739-1.912c-2.133-.926-4.246-2.012-6.319-3.018a10.424 10.424 0 0 1 -3.924-3.1c-1.59-2.415-2.012-8.21.765-10.061 1.429-.906 2.676-.262 4.025.362a13.382 13.382 0 0 0 6.278 1.631z" fill="#72577d" transform="translate(143.874 206.212)"/><path d="m189.415 163.233a2.978 2.978 0 0 1 -.141 1.328 2.637 2.637 0 0 1 -1.006.986 8.613 8.613 0 0 1 -4.467 1.509 5.192 5.192 0 0 1 -4.206-1.892 8.653 8.653 0 0 1 -1.308-3.884 45.178 45.178 0 0 1 -.865-9.015 1.248 1.248 0 0 1 1.187-1.489c2.5-.523 7.466-1.831 8.733 1.228a35.534 35.534 0 0 1 2.073 11.228z" fill="#fbc4d6" transform="translate(158.515 212.762)"/><path d="m200.251 157.054a23.744 23.744 0 0 1 6.3 1.207 7.828 7.828 0 0 1 4.588 4.206 4.347 4.347 0 0 1 .141 3.018 6.5 6.5 0 0 1 -3.421 3.24 43.626 43.626 0 0 1 -23.3 5.011 8.049 8.049 0 0 1 -5.655-2.012 8.854 8.854 0 0 1 -1.489-5.655l-.282-9.458a11.772 11.772 0 0 1 5.192 1.469c2.978 1.006 4.145-1.409 6.6-2.012 3.196-.745 8.066.664 11.326.986z" fill="#72577d" transform="translate(158.243 218.64)"/><path d="m175.26 146.018a4.508 4.508 0 0 1 2.012.181 3.542 3.542 0 0 1 1.127.986l6.942 7.787c1.348 1.509 2.757 3.582 1.811 5.373a4.025 4.025 0 0 1 -2.978 1.771 17.648 17.648 0 0 1 -9.739-1.912c-2.133-.926-4.246-2.012-6.319-3.018a10.424 10.424 0 0 1 -3.924-3.1c-1.59-2.415-2.012-8.21.765-10.061 1.429-.906 2.676-.262 4.025.362a13.382 13.382 0 0 0 6.278 1.631z" fill="url(#e)" transform="translate(143.874 206.212)"/><path d="m200.251 157.054a23.744 23.744 0 0 1 6.3 1.207 7.828 7.828 0 0 1 4.588 4.206 4.347 4.347 0 0 1 .141 3.018 6.5 6.5 0 0 1 -3.421 3.24 43.626 43.626 0 0 1 -23.3 5.011 8.049 8.049 0 0 1 -5.655-2.012 8.854 8.854 0 0 1 -1.489-5.655l-.282-9.458a11.772 11.772 0 0 1 5.192 1.469c2.978 1.006 4.145-1.409 6.6-2.012 3.196-.745 8.066.664 11.326.986z" fill="url(#f)" transform="translate(158.243 218.64)"/><path d="m139.461 105.65a63.791 63.791 0 0 0 -13 .2 3.3 3.3 0 0 0 -1.59.5 2.817 2.817 0 0 0 -.885 2.012c-.6 5.836 4.025 10.907 9.015 13.985 13.5 8.371 30.526 8.049 45.437 13.523a6.842 6.842 0 0 1 3.6 2.354 8.472 8.472 0 0 1 .885 4.025c.664 7.868 5.031 14.951 6.479 22.7s-.1 15.857 1.087 23.664c4.89-5.212 13.221-6.037 18.111-11.188 4.588-4.749 5.493-11.832 6.178-18.392l1.851-17.99a5.514 5.514 0 0 0 -3.26-6.52c-22.011-14.223-47.809-26.623-73.908-28.873z" fill="url(#g)" transform="translate(104.393 167.578)"/><path d="m201.434 110.42a11.45 11.45 0 0 1 5.453 2.757 11.028 11.028 0 0 1 2.012 7.566 153.477 153.477 0 0 1 -10.645 55.78 3.844 3.844 0 0 1 -5.614 3 126.759 126.759 0 0 1 -12.355-4.025l5.473-36.221a5.031 5.031 0 0 0 -.161-3.039 4.911 4.911 0 0 0 -1.65-1.69 145.549 145.549 0 0 0 -19.72-12.074c-5.494-2.777-11.792-6.037-13.281-11.913a6.54 6.54 0 0 1 1.087-5.936 9.68 9.68 0 0 1 3.018-2.012c3.642-1.791 8.23-4.025 12.416-3.662 3.361.342 4.648 2.274 7.445 3.7 7.767 3.865 18.088 5.314 26.522 7.769z" fill="#282328" transform="translate(131.444 160.997)"/><path d="m166.21 87.742c2.7 7.425 4.025 15.293 6.4 22.8a14.67 14.67 0 0 0 2.737 5.453 15.092 15.092 0 0 0 6.037 3.542q4.729 1.831 9.619 3.2c2.173.584 4.769 1.59 5.011 3.8a4.024 4.024 0 0 1 -.443 2.133 10.061 10.061 0 0 1 -8.371 5.13 27.086 27.086 0 0 1 -10.061-1.65 15.112 15.112 0 0 1 -7.727-4.165 16.36 16.36 0 0 1 -2.475-5.836 166.031 166.031 0 0 0 -13.663-33.766 38.235 38.235 0 0 1 -4.025-9.055c-1.328-5.554-1.348-18.714 4.387-13.885 4.625 3.907 10.541 16.785 12.574 22.299z" fill="#fbc4d6" transform="translate(129.28 126.064)"/><path d="m170 148.347a81.777 81.777 0 0 0 9.88-4.608c12.074-6.681 2.193-9.961-1.831-17.99-2.878-5.695-1.71-12.516-.221-18.694 2.636-10.866 6.158-22.135 3.622-32.981a12.678 12.678 0 0 0 -2.012-4.91 13.867 13.867 0 0 0 -2.535-2.435 27.368 27.368 0 0 0 -8.653-5.051c-6.037-2.012-12.879-.543-18.614 2.334-22.538 11.309-27.347 39.863-26.441 62.7.241 6.339 1.227 13.04 5.312 17.889s9.86 6.7 15.776 7.425a53.748 53.748 0 0 0 25.717-3.679z" fill="#fff" transform="translate(103.539 122.366)"/><path d="m130.056 104.237a13.543 13.543 0 0 0 2.012 6.037c2.012 2.837 5.715 3.884 9.116 4.709l15.313 3.783a20.123 20.123 0 0 0 5.755.865c4.186-.2 7.788-2.878 11.108-5.453a8.512 8.512 0 0 0 2.173-2.153c-8.452-.8-16.883-1.65-25.294-2.878-4.95-.724-10.182-1.731-13.824-5.131a17.346 17.346 0 0 1 -4.185-6.62c-.6-1.549-.885-5.494-2.636-5.836a45.317 45.317 0 0 0 .463 12.677z" fill="url(#h)" transform="translate(109.875 153.557)"/><path d="m151.07 84.03a2.4 2.4 0 0 1 -.7 1.69 2.173 2.173 0 0 1 -1.388.282 11.047 11.047 0 0 1 -10.343-13.06 55.656 55.656 0 0 1 1.771-5.634c1.066-3.783.885-8.049 3.28-11.168a125.109 125.109 0 0 0 7.083 13.8 7.486 7.486 0 0 1 1.328 6.3z" fill="#fbc4d6" transform="translate(119.085 117.702)"/><path d="m150.361 70.882-.906 6.037s-10.363-5.131-9.015-14.649 9.921 8.612 9.921 8.612z" fill="url(#i)" transform="translate(120.981 121.11)"/><path d="m163.37 76.178a9.558 9.558 0 0 1 -3.22 4.91 7.245 7.245 0 0 1 -2.455 1.067 14.871 14.871 0 0 1 -15.837-7.385 21.753 21.753 0 0 1 -.845-18.111 12.7 12.7 0 0 1 6.037-7.466 10.363 10.363 0 0 1 9.739 1.147 23.724 23.724 0 0 1 8.472 10.705c1.47 4.408-.382 10.928-1.891 15.133z" fill="#fbc4d6" transform="translate(120.086 109.938)"/><path d="m219.908 129.891a39.22 39.22 0 0 1 6.037 10.886 216.641 216.641 0 0 1 15.273 59.745 78.7 78.7 0 0 1 -19.459 0 182.236 182.236 0 0 0 -6.661-42.862 27.69 27.69 0 0 0 -3.522-8.492c-2.878-4.165-7.606-6.58-12.074-8.834a178.047 178.047 0 0 0 -32.619-12.074c-4.749-1.308-9.538-2.515-14.207-4.025-3.924-1.328-14.931-6.2-18.111-8.834a15.514 15.514 0 0 1 -6.037-10.564c0 1.046 30.667 3.139 32.861 2.9 7.385-.785 16.1-5.011 23.383-2.012 5.695 2.334 10.907 7.2 16.1 10.564 6.298 3.943 13.985 7.767 19.036 13.602z" fill="#473f47" transform="translate(109.046 166.82)"/><path d="m154.328 131.215-37.428-18.291 43.888-18.614 37.449 16.36z" fill="#72577d" transform="translate(141.02 163.947)"/><path d="m129.3 78.518a15.227 15.227 0 0 1 -.262 2.012c-1.107 10.3-.1 20.4.282 30.647.241 6.339 1.066 18.412 7.808 21.652 12.6 6.037 36.905 3.743 36.905 3.743a21.41 21.41 0 0 1 8.472.342c1.509.463 2.9 1.248 4.367 1.811 5.312 2.012 11.249 1.006 16.843 0a7.2 7.2 0 0 0 2.737-.905 4.97 4.97 0 0 0 .463-6.963 12.778 12.778 0 0 0 -6.761-3.723 40 40 0 0 0 -21.853-.845 24.392 24.392 0 0 1 -2.817.765 18.974 18.974 0 0 1 -3.381.241h-8.572c-9.86 0-19.157.121-20.646-11.41a62.622 62.622 0 0 1 -.322-12.879c.584-7.747 2.616-15.434 2.193-23.181a15.373 15.373 0 0 0 -1.791-7.043 7.164 7.164 0 0 0 -5.916-3.743 7.385 7.385 0 0 0 -6.037 4.025 16.1 16.1 0 0 0 -1.712 5.454z" fill="#fbc4d6" transform="translate(109.046 130.76)"/><path d="m194.822 84.1-52.322 26.622-7 30.828 43.908-20.545z" fill="#72577d" transform="translate(159.849 153.611)"/><path d="m191.306 69.741a8.412 8.412 0 0 0 -2.012-5.212 8.893 8.893 0 0 0 -2.214-1.851c-1.167-.684-1.449-.745-2.214.362-.986 1.429-1.308 3.1-2.214 4.588a11.731 11.731 0 0 1 -4.025 4.025 10.907 10.907 0 0 1 -6.2 1.63 8.754 8.754 0 0 0 -2.616 0 2.012 2.012 0 0 0 -1.388 1.006 6.721 6.721 0 0 0 -.221 2.314c-.181 2.012-2.173 3.441-3.28 5.192s-1.429 4.347-2.757 6.218a2.6 2.6 0 0 1 -.986.885c-.946.4-2.012-.121-3-.3-2.918-.5-5.272 2.214-7.767 3.864-5.011 3.3-11.571 2.455-17.487 1.469a17.406 17.406 0 0 1 -5.225-1.491 17.627 17.627 0 0 1 -4.689-4.025c-2.193-2.415-4.367-4.87-6.52-7.325a8.472 8.472 0 0 1 -1.871-2.757 4.95 4.95 0 0 1 -.181-2.234 13.5 13.5 0 0 1 1.227-4.025c1.57-3.521 3.4-7.345 6.942-8.935s7.727-.4 11.631-.8a2.314 2.314 0 0 0 1.328-.423 2.9 2.9 0 0 0 .644-1.227c1.63-5.413 3.662-11.289 8.532-14.086a19.539 19.539 0 0 1 12.074-1.59 47.672 47.672 0 0 0 12.3.7c2.012-.322 4.025-.986 6.037-1.388a19.7 19.7 0 0 1 13.844 2.012 14.609 14.609 0 0 1 7.123 11.893 16.659 16.659 0 0 0 0 2.837c.141.885.523 1.751.664 2.636a5.453 5.453 0 0 1 -5.473 6.037z" fill="#ff681c" transform="translate(94.726 105.268)"/><g fill="#fff"><path d="m128.263 85.331a88.723 88.723 0 0 0 -.2 17.145 2.455 2.455 0 0 0 .362 1.409 2.5 2.5 0 0 0 1.65.8 56.083 56.083 0 0 0 9.88.946 3.32 3.32 0 0 0 4.306-2.757c1.811-7.566 3.6-15.132 4.97-22.8.543-3.079.926-6.54-.926-9.035-2.676-3.622-9.9-4.025-13.382-1.388-4.206 3.249-5.996 10.81-6.66 15.68z" transform="translate(108.247 129.662)"/><path d="m163.322 78.381 5.695 13.643a2.938 2.938 0 0 1 .322 1.731 2.737 2.737 0 0 1 -.8 1.268 32.82 32.82 0 0 1 -9.739 7.083 34.007 34.007 0 0 1 -8.049-10.746c-1.892-4.85-1.469-10.243-.905-15.414.342-3.28.221-13.824 5.8-9.739 3.873 2.793 5.926 7.968 7.676 12.174z" transform="translate(130.135 126.953)"/><path d="m170.048 161.368a13.683 13.683 0 0 1 -4.266 9.941 14.328 14.328 0 0 1 -8.512 3.864 17.51 17.51 0 0 1 -1.791 0l-99.95-2.012a14.73 14.73 0 0 1 -14.569-14.489 13.684 13.684 0 0 1 4.266-9.941 14.428 14.428 0 0 1 10.3-4.025h3.4a27.246 27.246 0 0 1 -1.067-7.606 26.924 26.924 0 0 1 8.411-19.6 27.528 27.528 0 0 1 8.049-5.353 29.018 29.018 0 0 1 12.235-2.415l8.492.181a29.56 29.56 0 0 1 25.5 15.575 17.829 17.829 0 0 1 7.848-1.67h2.193a17.487 17.487 0 0 1 17.265 17.182v.825a15.756 15.756 0 0 1 -.664 4.608l8.27.181a14.73 14.73 0 0 1 14.59 14.754z" transform="translate(20.401 171.946)"/></g><path d="m157.27 155.551a17.519 17.519 0 0 1 -1.791 0l-99.95-2.012a14.73 14.73 0 0 1 -14.569-14.488 13.684 13.684 0 0 1 4.266-9.941c-3.924 24.671 21.833 21.149 21.833 21.149h64.941z" fill="url(#j)" transform="translate(20.401 191.568)"/><path d="m57.671 146.356-7.244-2.756a27.246 27.246 0 0 1 -1.067-7.606 26.924 26.924 0 0 1 8.411-19.6 27.527 27.527 0 0 1 8.049-5.353c-20.062 17.224-8.149 35.315-8.149 35.315z" fill="url(#k)" transform="translate(28.904 173.276)"/><path d="m301.048 103.239a13.643 13.643 0 0 1 -4.286 9.941 14.387 14.387 0 0 1 -8.532 3.864 10.478 10.478 0 0 1 -1.791 0l-99.93-2.012a14.71 14.71 0 0 1 -14.509-14.349 13.684 13.684 0 0 1 4.246-10.061 14.69 14.69 0 0 1 10.323-4.022h3.381a27.848 27.848 0 0 1 -1.066-7.586 26.944 26.944 0 0 1 8.411-19.6 27.689 27.689 0 0 1 8.049-5.373 28.957 28.957 0 0 1 12.235-2.415l8.492.181a29.5 29.5 0 0 1 25.475 15.6 17.346 17.346 0 0 1 7.848-1.67h2.193a17.467 17.467 0 0 1 17.285 17.165v.825a16.1 16.1 0 0 1 -.684 4.628l8.27.161a14.77 14.77 0 0 1 14.59 14.723z" fill="#fff" transform="translate(153.05 113.123)"/><path d="m288.25 97.421a10.48 10.48 0 0 1 -1.791 0l-99.93-2.012a14.71 14.71 0 0 1 -14.529-14.348 13.683 13.683 0 0 1 4.246-10.061c-4.025 24.691 21.833 21.149 21.833 21.149h64.936z" fill="url(#l)" transform="translate(153.05 132.744)"/><path d="m188.7 88.236-7.264-2.757a27.85 27.85 0 0 1 -1.066-7.586 26.945 26.945 0 0 1 8.411-19.6 27.689 27.689 0 0 1 8.049-5.373c-20.042 17.225-8.13 35.316-8.13 35.316z" fill="url(#m)" transform="translate(161.523 114.442)"/><path d="m169.956 59.065a2.012 2.012 0 0 0 -1.388 1.006 6.72 6.72 0 0 0 -.221 2.314c-.181 2.012-2.173 3.441-3.28 5.192s-1.429 4.347-2.757 6.218a2.6 2.6 0 0 1 -.986.885c-.946.4-2.012-.121-3-.3-2.918-.5-5.272 2.214-7.767 3.864-5.011 3.3-11.571 2.455-17.487 1.469a17.407 17.407 0 0 1 -5.373-1.529 17.627 17.627 0 0 1 -4.689-4.025c-2.193-2.415-4.367-4.87-6.52-7.325a8.471 8.471 0 0 1 -1.871-2.757 4.95 4.95 0 0 1 -.181-2.234 24.973 24.973 0 0 1 2.918-1.509 13.543 13.543 0 0 1 10.061-1.107c2.7 1.046 4.608 3.441 6.922 5.151a16.6 16.6 0 0 0 21.411-2.012 18.453 18.453 0 0 1 3.542-3.542c2.395-1.308 7.265-1.107 10.666.241z" fill="url(#n)" transform="translate(94.726 119.525)"/></svg>